  0
SECTION
  2
HEADER
  9
$ACADVER
  1
AC1015
  9
$ACADMAINTVER
 70
     6
  9
$DWGCODEPAGE
  3
ANSI_1252
  9
$INSBASE
 10
0.0
 20
0.0
 30
0.0
  9
$EXTMIN
 10
-5.9814192262
 20
-5.9814192262
 30
0.0
  9
$EXTMAX
 10
5.9814192262
 20
5.9814192262
 30
0.0
  9
$LIMMIN
 10
0.0
 20
0.0
  9
$LIMMAX
 10
12.0
 20
9.0
  9
$ORTHOMODE
 70
     0
  9
$REGENMODE
 70
     1
  9
$FILLMODE
 70
     1
  9
$QTEXTMODE
 70
     0
  9
$MIRRTEXT
 70
     1
  9
$LTSCALE
 40
1.0
  9
$ATTMODE
 70
     1
  9
$TEXTSIZE
 40
0.25
  9
$TRACEWID
 40
0.05
  9
$TEXTSTYLE
  7
Standard
  9
$CLAYER
  8
0
  9
$CELTYPE
  6
ByLayer
  9
$CECOLOR
 62
   256
  9
$CELTSCALE
 40
1.0
  9
$DISPSILH
 70
     0
  9
$DIMSCALE
 40
1.0
  9
$DIMASZ
 40
0.236
  9
$DIMEXO
 40
0.039
  9
$DIMDLI
 40
0.38
  9
$DIMRND
 40
0.0
  9
$DIMDLE
 40
0.0
  9
$DIMEXE
 40
0.039
  9
$DIMTP
 40
0.0
  9
$DIMTM
 40
0.0
  9
$DIMTXT
 40
0.25
  9
$DIMCEN
 40
0.09
  9
$DIMTSZ
 40
0.0
  9
$DIMTOL
 70
     0
  9
$DIMLIM
 70
     0
  9
$DIMTIH
 70
     1
  9
$DIMTOH
 70
     1
  9
$DIMSE1
 70
     0
  9
$DIMSE2
 70
     0
  9
$DIMTAD
 70
     1
  9
$DIMZIN
 70
     0
  9
$DIMBLK
  1

  9
$DIMASO
 70
     1
  9
$DIMSHO
 70
     1
  9
$DIMPOST
  1

  9
$DIMAPOST
  1

  9
$DIMALT
 70
     0
  9
$DIMALTD
 70
     2
  9
$DIMALTF
 40
25.4
  9
$DIMLFAC
 40
1.0
  9
$DIMTOFL
 70
     0
  9
$DIMTVP
 40
0.0
  9
$DIMTIX
 70
     0
  9
$DIMSOXD
 70
     0
  9
$DIMSAH
 70
     0
  9
$DIMBLK1
  1

  9
$DIMBLK2
  1

  9
$DIMSTYLE
  2
Standard
  9
$DIMCLRD
 70
     0
  9
$DIMCLRE
 70
     0
  9
$DIMCLRT
 70
     0
  9
$DIMTFAC
 40
1.0
  9
$DIMGAP
 40
0.06
  9
$DIMJUST
 70
     0
  9
$DIMSD1
 70
     0
  9
$DIMSD2
 70
     0
  9
$DIMTOLJ
 70
     1
  9
$DIMTZIN
 70
     0
  9
$DIMALTZ
 70
     0
  9
$DIMALTTZ
 70
     0
  9
$DIMUPT
 70
     0
  9
$DIMDEC
 70
     3
  9
$DIMTDEC
 70
     2
  9
$DIMALTU
 70
     2
  9
$DIMALTTD
 70
     2
  9
$DIMTXSTY
  7
Standard
  9
$DIMAUNIT
 70
     0
  9
$DIMADEC
 70
     2
  9
$DIMALTRND
 40
0.0
  9
$DIMAZIN
 70
     0
  9
$DIMDSEP
 70
    46
  9
$DIMATFIT
 70
     3
  9
$DIMFRAC
 70
     0
  9
$DIMLDRBLK
  1

  9
$DIMLUNIT
 70
     2
  9
$DIMLWD
 70
    -2
  9
$DIMLWE
 70
    -2
  9
$DIMTMOVE
 70
     0
  9
$LUNITS
 70
     2
  9
$LUPREC
 70
     3
  9
$SKETCHINC
 40
0.1
  9
$FILLETRAD
 40
0.5
  9
$AUNITS
 70
     0
  9
$AUPREC
 70
     2
  9
$MENU
  1
.
  9
$ELEVATION
 40
0.0
  9
$PELEVATION
 40
0.0
  9
$THICKNESS
 40
0.0
  9
$LIMCHECK
 70
     0
  9
$CHAMFERA
 40
0.5
  9
$CHAMFERB
 40
0.5
  9
$CHAMFERC
 40
1.0
  9
$CHAMFERD
 40
0.0
  9
$SKPOLY
 70
     0
  9
$TDCREATE
 40
2457577.104802674
  9
$TDUCREATE
 40
2457577.39646934
  9
$TDUPDATE
 40
2457577.104899086
  9
$TDUUPDATE
 40
2457577.396565752
  9
$TDINDWG
 40
0.0000000116
  9
$TDUSRTIMER
 40
0.0000000116
  9
$USRTIMER
 70
     1
  9
$ANGBASE
 50
0.0
  9
$ANGDIR
 70
     0
  9
$PDMODE
 70
     0
  9
$PDSIZE
 40
-1.0
  9
$PLINEWID
 40
0.0
  9
$SPLFRAME
 70
     0
  9
$SPLINETYPE
 70
     6
  9
$SPLINESEGS
 70
     8
  9
$HANDSEED
  5
404
  9
$SURFTAB1
 70
     6
  9
$SURFTAB2
 70
     6
  9
$SURFTYPE
 70
     6
  9
$SURFU
 70
     6
  9
$SURFV
 70
     6
  9
$UCSBASE
  2

  9
$UCSNAME
  2

  9
$UCSORG
 10
0.0
 20
0.0
 30
0.0
  9
$UCSXDIR
 10
1.0
 20
0.0
 30
0.0
  9
$UCSYDIR
 10
0.0
 20
1.0
 30
0.0
  9
$UCSORTHOREF
  2

  9
$UCSORTHOVIEW
 70
     0
  9
$UCSORGTOP
 10
0.0
 20
0.0
 30
0.0
  9
$UCSORGBOTTOM
 10
0.0
 20
0.0
 30
0.0
  9
$UCSORGLEFT
 10
0.0
 20
0.0
 30
0.0
  9
$UCSORGRIGHT
 10
0.0
 20
0.0
 30
0.0
  9
$UCSORGFRONT
 10
0.0
 20
0.0
 30
0.0
  9
$UCSORGBACK
 10
0.0
 20
0.0
 30
0.0
  9
$PUCSBASE
  2

  9
$PUCSNAME
  2

  9
$PUCSORG
 10
0.0
 20
0.0
 30
0.0
  9
$PUCSXDIR
 10
1.0
 20
0.0
 30
0.0
  9
$PUCSYDIR
 10
0.0
 20
1.0
 30
0.0
  9
$PUCSORTHOREF
  2

  9
$PUCSORTHOVIEW
 70
     0
  9
$PUCSORGTOP
 10
0.0
 20
0.0
 30
0.0
  9
$PUCSORGBOTTOM
 10
0.0
 20
0.0
 30
0.0
  9
$PUCSORGLEFT
 10
0.0
 20
0.0
 30
0.0
  9
$PUCSORGRIGHT
 10
0.0
 20
0.0
 30
0.0
  9
$PUCSORGFRONT
 10
0.0
 20
0.0
 30
0.0
  9
$PUCSORGBACK
 10
0.0
 20
0.0
 30
0.0
  9
$USERI1
 70
     0
  9
$USERI2
 70
     0
  9
$USERI3
 70
     0
  9
$USERI4
 70
     0
  9
$USERI5
 70
     0
  9
$USERR1
 40
0.0
  9
$USERR2
 40
0.0
  9
$USERR3
 40
0.0
  9
$USERR4
 40
0.0
  9
$USERR5
 40
0.0
  9
$WORLDVIEW
 70
     1
  9
$SHADEDGE
 70
     3
  9
$SHADEDIF
 70
    70
  9
$TILEMODE
 70
     1
  9
$MAXACTVP
 70
    64
  9
$PINSBASE
 10
0.0
 20
0.0
 30
0.0
  9
$PLIMCHECK
 70
     0
  9
$PEXTMIN
 10
1.0000000000E+20
 20
1.0000000000E+20
 30
1.0000000000E+20
  9
$PEXTMAX
 10
-1.0000000000E+20
 20
-1.0000000000E+20
 30
-1.0000000000E+20
  9
$PLIMMIN
 10
0.0
 20
0.0
  9
$PLIMMAX
 10
12.0
 20
9.0
  9
$UNITMODE
 70
     0
  9
$VISRETAIN
 70
     1
  9
$PLINEGEN
 70
     0
  9
$PSLTSCALE
 70
     1
  9
$TREEDEPTH
 70
  3020
  9
$CMLSTYLE
  2
Standard
  9
$CMLJUST
 70
     0
  9
$CMLSCALE
 40
1.0
  9
$PROXYGRAPHICS
 70
     1
  9
$MEASUREMENT
 70
     0
  9
$CELWEIGHT
370
    -1
  9
$ENDCAPS
280
     0
  9
$JOINSTYLE
280
     0
  9
$LWDISPLAY
290
     1
  9
$INSUNITS
 70
     1
  9
$HYPERLINKBASE
  1

  9
$STYLESHEET
  1

  9
$XEDIT
290
     1
  9
$CEPSNTYPE
380
     0
  9
$PSTYLEMODE
290
     1
  9
$FINGERPRINTGUID
  2
{164203EB-3F3E-4B46-9AC4-548D37D71C59}
  9
$VERSIONGUID
  2
{FAEB1C32-E019-11D5-929B-00C0DF256EC4}
  9
$EXTNAMES
290
     1
  9
$PSVPSCALE
 40
0.0
  9
$OLESTARTUP
290
     0
  0
ENDSEC
  0
SECTION
  2
CLASSES
  0
CLASS
  1
ACDBDICTIONARYWDFLT
  2
AcDbDictionaryWithDefault
  3
ObjectDBX Classes
 90
        0
280
     0
281
     0
  0
CLASS
  1
VISUALSTYLE
  2
AcDbVisualStyle
  3
ObjectDBX Classes
 90
     4095
280
     0
281
     0
  0
CLASS
  1
MATERIAL
  2
AcDbMaterial
  3
ObjectDBX Classes
 90
     1153
280
     0
281
     0
  0
CLASS
  1
ACDBPLACEHOLDER
  2
AcDbPlaceHolder
  3
ObjectDBX Classes
 90
        0
280
     0
281
     0
  0
CLASS
  1
LAYOUT
  2
AcDbLayout
  3
ObjectDBX Classes
 90
        0
280
     0
281
     0
  0
ENDSEC
  0
SECTION
  2
TABLES
  0
TABLE
  2
VPORT
  5
8
330
0
100
AcDbSymbolTable
 70
     1
  0
VPORT
  5
29
330
8
100
AcDbSymbolTableRecord
100
AcDbViewportTableRecord
  2
*Active
 70
     0
 10
0.0
 20
0.0
 11
1.0
 21
1.0
 12
0.0
 22
0.0
 13
0.0
 23
0.0
 14
0.5
 24
0.5
 15
0.5
 25
0.5
 16
0.0
 26
0.0
 36
1.0
 17
0.0
 27
0.0
 37
0.0
 40
12.2020952214
 41
1.0
 42
50.0
 43
0.0
 44
0.0
 50
0.0
 51
0.0
 71
     0
 72
   100
 73
     1
 74
     3
 75
     0
 76
     0
 77
     0
 78
     0
281
     0
 65
     1
110
0.0
120
0.0
130
0.0
111
1.0
121
0.0
131
0.0
112
0.0
122
1.0
132
0.0
 79
     0
146
0.0
  0
ENDTAB
  0
TABLE
  2
LTYPE
  5
5
330
0
100
AcDbSymbolTable
 70
     6
  0
LTYPE
  5
14
330
5
100
AcDbSymbolTableRecord
100
AcDbLinetypeTableRecord
  2
ByBlock
 70
     0
  3

 72
    65
 73
     0
 40
0.0
  0
LTYPE
  5
15
330
5
100
AcDbSymbolTableRecord
100
AcDbLinetypeTableRecord
  2
ByLayer
 70
     0
  3

 72
    65
 73
     0
 40
0.0
  0
LTYPE
  5
16
330
5
100
AcDbSymbolTableRecord
100
AcDbLinetypeTableRecord
  2
Continuous
 70
     0
  3
Solid line
 72
    65
 73
     0
 40
0.0
  0
LTYPE
  5
3F
330
5
100
AcDbSymbolTableRecord
100
AcDbLinetypeTableRecord
  2
HIDDEN
 70
     0
  3
Hidden __ __ __ __ __ __ __ __ __ __ __ __ __ __
 72
    65
 73
     2
 40
0.075
 49
0.05
 74
     0
 49
-0.025
 74
     0
  0
LTYPE
  5
40
330
5
100
AcDbSymbolTableRecord
100
AcDbLinetypeTableRecord
  2
PHANTOM
 70
     0
  3
Phantom ______  __  __  ______  __  __  ______
 72
    65
 73
     6
 40
0.5
 49
0.25
 74
     0
 49
-0.05
 74
     0
 49
0.05
 74
     0
 49
-0.05
 74
     0
 49
0.05
 74
     0
 49
-0.05
 74
     0
  0
LTYPE
  5
41
330
5
100
AcDbSymbolTableRecord
100
AcDbLinetypeTableRecord
  2
CENTER
 70
     0
  3
Center ____ _ ____ _ ____ _ ____ _ ____ _ ____
 72
    65
 73
     4
 40
0.4
 49
0.25
 74
     0
 49
-0.05
 74
     0
 49
0.05
 74
     0
 49
-0.05
 74
     0
  0
LTYPE
  5
42
330
5
100
AcDbSymbolTableRecord
100
AcDbLinetypeTableRecord
  2
CENTERX2
 70
     0
  3
Center (2x) ________  __  ________  __  _____
 72
    65
 73
     4
 40
0.8
 49
0.5
 74
     0
 49
-0.1
 74
     0
 49
0.1
 74
     0
 49
-0.1
 74
     0
  0
LTYPE
  5
43
330
5
100
AcDbSymbolTableRecord
100
AcDbLinetypeTableRecord
  2
DOT2
 70
     0
  3
Dot (.5x) ........................................
 72
    65
 73
     2
 40
0.025
 49
0.0
 74
     0
 49
-0.025
 74
     0
  0
ENDTAB
  0
TABLE
  2
LAYER
  5
2
330
0
100
AcDbSymbolTable
 70
     1
  0
LAYER
  5
10
330
2
100
AcDbSymbolTableRecord
100
AcDbLayerTableRecord
  2
0
 70
     0
 62
     7
  6
Continuous
370
    -3
390
F
  0
ENDTAB
  0
TABLE
  2
STYLE
  5
3
330
0
100
AcDbSymbolTable
 70
     1
  0
STYLE
  5
11
330
3
100
AcDbSymbolTableRecord
100
AcDbTextStyleTableRecord
  2
Standard
 70
     0
 40
0.0
 41
1.0
 50
0.0
 71
     0
 42
0.25
  3
txt
  4

  0
ENDTAB
  0
TABLE
  2
VIEW
  5
6
330
0
100
AcDbSymbolTable
 70
     0
  0
ENDTAB
  0
TABLE
  2
UCS
  5
7
330
0
100
AcDbSymbolTable
 70
     0
  0
ENDTAB
  0
TABLE
  2
APPID
  5
9
330
0
100
AcDbSymbolTable
 70
     1
  0
APPID
  5
12
330
9
100
AcDbSymbolTableRecord
100
AcDbRegAppTableRecord
  2
ACAD
 70
     0
  0
ENDTAB
  0
TABLE
  2
DIMSTYLE
  5
A
330
0
100
AcDbSymbolTable
 70
     1
100
AcDbDimStyleTable
  0
DIMSTYLE
105
27
330
A
100
AcDbSymbolTableRecord
100
AcDbDimStyleTableRecord
  2
Standard
 70
     0
178
     0
340
11
  0
ENDTAB
  0
TABLE
  2
BLOCK_RECORD
  5
1
330
0
100
AcDbSymbolTable
 70
     1
  0
BLOCK_RECORD
  5
1F
330
1
100
AcDbSymbolTableRecord
100
AcDbBlockTableRecord
  2
*Model_Space
340
22
  0
BLOCK_RECORD
  5
1B
330
1
100
AcDbSymbolTableRecord
100
AcDbBlockTableRecord
  2
*Paper_Space
340
1E
  0
BLOCK_RECORD
  5
23
330
1
100
AcDbSymbolTableRecord
100
AcDbBlockTableRecord
  2
*Paper_Space0
340
26
  0
ENDTAB
  0
ENDSEC
  0
SECTION
  2
BLOCKS
  0
BLOCK
  5
20
330
1F
100
AcDbEntity
  8
0
100
AcDbBlockBegin
  2
*Model_Space
 70
     0
 10
0.0
 20
0.0
 30
0.0
  3
*Model_Space
  1

  0
ENDBLK
  5
21
330
1F
100
AcDbEntity
  8
0
100
AcDbBlockEnd
  0
BLOCK
  5
1C
330
1B
100
AcDbEntity
 67
     1
  8
0
100
AcDbBlockBegin
  2
*Paper_Space
 70
     0
 10
0.0
 20
0.0
 30
0.0
  3
*Paper_Space
  1

  0
ENDBLK
  5
1D
330
1B
100
AcDbEntity
 67
     1
  8
0
100
AcDbBlockEnd
  0
BLOCK
  5
24
330
23
100
AcDbEntity
  8
0
100
AcDbBlockBegin
  2
*Paper_Space0
 70
     0
 10
0.0
 20
0.0
 30
0.0
  3
*Paper_Space0
  1

  0
ENDBLK
  5
25
330
23
100
AcDbEntity
  8
0
100
AcDbBlockEnd
  0
ENDSEC
  0
SECTION
  2
ENTITIES
  0
CIRCLE
  5
104
330
1F
100
AcDbEntity
  8
0
  6
Continuous
 62
     7
370
    15
100
AcDbCircle
 10
-3.6477613839
 20
-4.4448101068
 30
0.0
 40
0.0645000000000003
  0
CIRCLE
  5
105
330
1F
100
AcDbEntity
  8
0
  6
Continuous
 62
     7
370
    15
100
AcDbCircle
 10
-2.7105312367
 20
-5.07104727
 30
0.0
 40
0.0645000000000004
  0
CIRCLE
  5
106
330
1F
100
AcDbEntity
  8
0
  6
Continuous
 62
     7
370
    15
100
AcDbCircle
 10
-1.6691368942
 20
-5.5024069305
 30
0.0
 40
0.0644999999999996
  0
CIRCLE
  5
107
330
1F
100
AcDbEntity
  8
0
  6
Continuous
 62
     7
370
    15
100
AcDbCircle
 10
-0.5635985569
 20
-5.7223121784
 30
0.0
 40
0.064499999999999
  0
CIRCLE
  5
108
330
1F
100
AcDbEntity
  8
0
  6
Continuous
 62
     7
370
    15
100
AcDbCircle
 10
0.5635985569
 20
-5.7223121784
 30
0.0
 40
0.0644999999999999
  0
CIRCLE
  5
109
330
1F
100
AcDbEntity
  8
0
  6
Continuous
 62
     7
370
    15
100
AcDbCircle
 10
1.6691368942
 20
-5.5024069305
 30
0.0
 40
0.0644999999999997
  0
CIRCLE
  5
10A
330
1F
100
AcDbEntity
  8
0
  6
Continuous
 62
     7
370
    15
100
AcDbCircle
 10
2.7105312367
 20
-5.07104727
 30
0.0
 40
0.0644999999999988
  0
CIRCLE
  5
10B
330
1F
100
AcDbEntity
  8
0
  6
Continuous
 62
     7
370
    15
100
AcDbCircle
 10
3.6477613839
 20
-4.4448101068
 30
0.0
 40
0.0644999999999998
  0
CIRCLE
  5
10C
330
1F
100
AcDbEntity
  8
0
  6
Continuous
 62
     7
370
    15
100
AcDbCircle
 10
4.4448101068
 20
-3.6477613839
 30
0.0
 40
0.0644999999999993
  0
CIRCLE
  5
10D
330
1F
100
AcDbEntity
  8
0
  6
Continuous
 62
     7
370
    15
100
AcDbCircle
 10
5.07104727
 20
-2.7105312367
 30
0.0
 40
0.0645000000000001
  0
CIRCLE
  5
10E
330
1F
100
AcDbEntity
  8
0
  6
Continuous
 62
     7
370
    15
100
AcDbCircle
 10
5.5024069305
 20
-1.6691368942
 30
0.0
 40
0.0644999999999981
  0
CIRCLE
  5
10F
330
1F
100
AcDbEntity
  8
0
  6
Continuous
 62
     7
370
    15
100
AcDbCircle
 10
5.7223121784
 20
-0.5635985569
 30
0.0
 40
0.0645000000000003
  0
CIRCLE
  5
110
330
1F
100
AcDbEntity
  8
0
  6
Continuous
 62
     7
370
    15
100
AcDbCircle
 10
5.7223121784
 20
0.5635985569
 30
0.0
 40
0.0645
  0
CIRCLE
  5
111
330
1F
100
AcDbEntity
  8
0
  6
Continuous
 62
     7
370
    15
100
AcDbCircle
 10
5.5024069305
 20
1.6691368942
 30
0.0
 40
0.0644999999999997
  0
CIRCLE
  5
112
330
1F
100
AcDbEntity
  8
0
  6
Continuous
 62
     7
370
    15
100
AcDbCircle
 10
5.07104727
 20
2.7105312367
 30
0.0
 40
0.0644999999999993
  0
CIRCLE
  5
113
330
1F
100
AcDbEntity
  8
0
  6
Continuous
 62
     7
370
    15
100
AcDbCircle
 10
4.4448101068
 20
3.6477613839
 30
0.0
 40
0.0644999999999998
  0
CIRCLE
  5
114
330
1F
100
AcDbEntity
  8
0
  6
Continuous
 62
     7
370
    15
100
AcDbCircle
 10
3.6477613839
 20
4.4448101068
 30
0.0
 40
0.0644999999999989
  0
CIRCLE
  5
115
330
1F
100
AcDbEntity
  8
0
  6
Continuous
 62
     7
370
    15
100
AcDbCircle
 10
2.7105312367
 20
5.07104727
 30
0.0
 40
0.0644999999999975
  0
CIRCLE
  5
116
330
1F
100
AcDbEntity
  8
0
  6
Continuous
 62
     7
370
    15
100
AcDbCircle
 10
1.6691368942
 20
5.5024069305
 30
0.0
 40
0.0645000000000003
  0
CIRCLE
  5
117
330
1F
100
AcDbEntity
  8
0
  6
Continuous
 62
     7
370
    15
100
AcDbCircle
 10
0.5635985569
 20
5.7223121784
 30
0.0
 40
0.0644999999999996
  0
CIRCLE
  5
118
330
1F
100
AcDbEntity
  8
0
  6
Continuous
 62
     7
370
    15
100
AcDbCircle
 10
-0.5635985569
 20
5.7223121784
 30
0.0
 40
0.0645000000000004
  0
CIRCLE
  5
119
330
1F
100
AcDbEntity
  8
0
  6
Continuous
 62
     7
370
    15
100
AcDbCircle
 10
-1.6691368942
 20
5.5024069305
 30
0.0
 40
0.0645000000000003
  0
CIRCLE
  5
11A
330
1F
100
AcDbEntity
  8
0
  6
Continuous
 62
     7
370
    15
100
AcDbCircle
 10
-2.7105312367
 20
5.07104727
 30
0.0
 40
0.0644999999999988
  0
CIRCLE
  5
11B
330
1F
100
AcDbEntity
  8
0
  6
Continuous
 62
     7
370
    15
100
AcDbCircle
 10
-3.6477613839
 20
4.4448101068
 30
0.0
 40
0.0644999999999998
  0
CIRCLE
  5
11C
330
1F
100
AcDbEntity
  8
0
  6
Continuous
 62
     7
370
    15
100
AcDbCircle
 10
-4.4448101068
 20
3.6477613839
 30
0.0
 40
0.0645000000000002
  0
CIRCLE
  5
11D
330
1F
100
AcDbEntity
  8
0
  6
Continuous
 62
     7
370
    15
100
AcDbCircle
 10
-5.07104727
 20
2.7105312367
 30
0.0
 40
0.0644999999999998
  0
CIRCLE
  5
11E
330
1F
100
AcDbEntity
  8
0
  6
Continuous
 62
     7
370
    15
100
AcDbCircle
 10
-5.5024069305
 20
1.6691368942
 30
0.0
 40
0.0644999999999981
  0
CIRCLE
  5
11F
330
1F
100
AcDbEntity
  8
0
  6
Continuous
 62
     7
370
    15
100
AcDbCircle
 10
-5.7223121784
 20
0.5635985569
 30
0.0
 40
0.0645000000000007
  0
CIRCLE
  5
120
330
1F
100
AcDbEntity
  8
0
  6
Continuous
 62
     7
370
    15
100
AcDbCircle
 10
-5.7223121784
 20
-0.5635985569
 30
0.0
 40
0.0644999999999994
  0
CIRCLE
  5
121
330
1F
100
AcDbEntity
  8
0
  6
Continuous
 62
     7
370
    15
100
AcDbCircle
 10
-5.5024069305
 20
-1.6691368942
 30
0.0
 40
0.0644999999999993
  0
CIRCLE
  5
122
330
1F
100
AcDbEntity
  8
0
  6
Continuous
 62
     7
370
    15
100
AcDbCircle
 10
-5.07104727
 20
-2.7105312367
 30
0.0
 40
0.0644999999999988
  0
CIRCLE
  5
123
330
1F
100
AcDbEntity
  8
0
  6
Continuous
 62
     7
370
    15
100
AcDbCircle
 10
-4.4448101068
 20
-3.6477613839
 30
0.0
 40
0.0644999999999993
  0
LINE
  5
234
330
1F
100
AcDbEntity
  8
0
  6
Continuous
 62
     7
370
    15
100
AcDbLine
 10
-3.9014616652
 20
-4.2373373863
 30
0.0
 11
-3.795395648
 21
-4.1312713691
 31
0.0
  0
LINE
  5
235
330
1F
100
AcDbEntity
  8
0
  6
Continuous
 62
     7
370
    15
100
AcDbLine
 10
-3.795395648
 20
-4.1312713691
 30
0.0
 11
-4.1312713691
 21
-3.795395648
 31
0.0
  0
LINE
  5
236
330
1F
100
AcDbEntity
  8
0
  6
Continuous
 62
     7
370
    15
100
AcDbLine
 10
-4.2373373863
 20
-3.9014616652
 30
0.0
 11
-4.1312713691
 21
-3.795395648
 31
0.0
  0
LINE
  5
237
330
1F
100
AcDbEntity
  8
0
  6
Continuous
 62
     7
370
    15
100
AcDbLine
 10
-4.6531596885
 20
-3.3947807239
 30
0.0
 11
-4.5284392466
 21
-3.311445189
 31
0.0
  0
LINE
  5
238
330
1F
100
AcDbEntity
  8
0
  6
Continuous
 62
     7
370
    15
100
AcDbLine
 10
-4.5284392466
 20
-3.311445189
 30
0.0
 11
-4.7923351073
 21
-2.9164971232
 31
0.0
  0
LINE
  5
239
330
1F
100
AcDbEntity
  8
0
  6
Continuous
 62
     7
370
    15
100
AcDbLine
 10
-4.9170555491
 20
-2.9998326581
 30
0.0
 11
-4.7923351073
 21
-2.9164971232
 31
0.0
  0
LINE
  5
23A
330
1F
100
AcDbEntity
  8
0
  6
Continuous
 62
     7
370
    15
100
AcDbLine
 10
-5.2260393944
 20
-2.4217645422
 30
0.0
 11
-5.0874574645
 21
-2.3643620274
 31
0.0
  0
LINE
  5
23B
330
1F
100
AcDbEntity
  8
0
  6
Continuous
 62
     7
370
    15
100
AcDbLine
 10
-5.0874574645
 20
-2.3643620274
 30
0.0
 11
-5.2692320949
 21
-1.9255192494
 31
0.0
  0
LINE
  5
23C
330
1F
100
AcDbEntity
  8
0
  6
Continuous
 62
     7
370
    15
100
AcDbLine
 10
-5.4078140248
 20
-1.9829217643
 30
0.0
 11
-5.2692320949
 21
-1.9255192494
 31
0.0
  0
LINE
  5
23D
330
1F
100
AcDbEntity
  8
0
  6
Continuous
 62
     7
370
    15
100
AcDbLine
 10
-5.5980853372
 20
-1.3556813073
 30
0.0
 11
-5.4509675452
 21
-1.326417759
 31
0.0
  0
LINE
  5
23E
330
1F
100
AcDbEntity
  8
0
  6
Continuous
 62
     7
370
    15
100
AcDbLine
 10
-5.4509675452
 20
-1.326417759
 30
0.0
 11
-5.5436354481
 21
-0.8605447508
 31
0.0
  0
LINE
  5
23F
330
1F
100
AcDbEntity
  8
0
  6
Continuous
 62
     7
370
    15
100
AcDbLine
 10
-5.6907532402
 20
-0.8898082991
 30
0.0
 11
-5.5436354481
 21
-0.8605447508
 31
0.0
  0
LINE
  5
240
330
1F
100
AcDbEntity
  8
0
  6
Continuous
 62
     7
370
    15
100
AcDbLine
 10
-5.755
 20
-0.2375
 30
0.0
 11
-5.605
 21
-0.2375
 31
0.0
  0
LINE
  5
241
330
1F
100
AcDbEntity
  8
0
  6
Continuous
 62
     7
370
    15
100
AcDbLine
 10
-5.605
 20
-0.2375
 30
0.0
 11
-5.605
 21
0.2375
 31
0.0
  0
LINE
  5
242
330
1F
100
AcDbEntity
  8
0
  6
Continuous
 62
     7
370
    15
100
AcDbLine
 10
-5.755
 20
0.2375
 30
0.0
 11
-5.605
 21
0.2375
 31
0.0
  0
LINE
  5
243
330
1F
100
AcDbEntity
  8
0
  6
Continuous
 62
     7
370
    15
100
AcDbLine
 10
-5.6907532402
 20
0.8898082991
 30
0.0
 11
-5.5436354481
 21
0.8605447508
 31
0.0
  0
LINE
  5
244
330
1F
100
AcDbEntity
  8
0
  6
Continuous
 62
     7
370
    15
100
AcDbLine
 10
-5.5436354481
 20
0.8605447508
 30
0.0
 11
-5.4509675452
 21
1.326417759
 31
0.0
  0
LINE
  5
245
330
1F
100
AcDbEntity
  8
0
  6
Continuous
 62
     7
370
    15
100
AcDbLine
 10
-5.5980853372
 20
1.3556813073
 30
0.0
 11
-5.4509675452
 21
1.326417759
 31
0.0
  0
LINE
  5
246
330
1F
100
AcDbEntity
  8
0
  6
Continuous
 62
     7
370
    15
100
AcDbLine
 10
-5.4078140248
 20
1.9829217643
 30
0.0
 11
-5.2692320949
 21
1.9255192494
 31
0.0
  0
LINE
  5
247
330
1F
100
AcDbEntity
  8
0
  6
Continuous
 62
     7
370
    15
100
AcDbLine
 10
-5.2692320949
 20
1.9255192494
 30
0.0
 11
-5.0874574645
 21
2.3643620274
 31
0.0
  0
LINE
  5
248
330
1F
100
AcDbEntity
  8
0
  6
Continuous
 62
     7
370
    15
100
AcDbLine
 10
-5.2260393944
 20
2.4217645422
 30
0.0
 11
-5.0874574645
 21
2.3643620274
 31
0.0
  0
LINE
  5
249
330
1F
100
AcDbEntity
  8
0
  6
Continuous
 62
     7
370
    15
100
AcDbLine
 10
-4.9170555491
 20
2.9998326581
 30
0.0
 11
-4.7923351073
 21
2.9164971232
 31
0.0
  0
LINE
  5
24A
330
1F
100
AcDbEntity
  8
0
  6
Continuous
 62
     7
370
    15
100
AcDbLine
 10
-4.7923351073
 20
2.9164971232
 30
0.0
 11
-4.5284392466
 21
3.311445189
 31
0.0
  0
LINE
  5
24B
330
1F
100
AcDbEntity
  8
0
  6
Continuous
 62
     7
370
    15
100
AcDbLine
 10
-4.6531596885
 20
3.3947807239
 30
0.0
 11
-4.5284392466
 21
3.311445189
 31
0.0
  0
LINE
  5
24C
330
1F
100
AcDbEntity
  8
0
  6
Continuous
 62
     7
370
    15
100
AcDbLine
 10
-4.2373373863
 20
3.9014616652
 30
0.0
 11
-4.1312713691
 21
3.795395648
 31
0.0
  0
LINE
  5
24D
330
1F
100
AcDbEntity
  8
0
  6
Continuous
 62
     7
370
    15
100
AcDbLine
 10
-4.1312713691
 20
3.795395648
 30
0.0
 11
-3.795395648
 21
4.1312713691
 31
0.0
  0
LINE
  5
24E
330
1F
100
AcDbEntity
  8
0
  6
Continuous
 62
     7
370
    15
100
AcDbLine
 10
-3.9014616652
 20
4.2373373863
 30
0.0
 11
-3.795395648
 21
4.1312713691
 31
0.0
  0
LINE
  5
24F
330
1F
100
AcDbEntity
  8
0
  6
Continuous
 62
     7
370
    15
100
AcDbLine
 10
-3.3947807239
 20
4.6531596885
 30
0.0
 11
-3.311445189
 21
4.5284392466
 31
0.0
  0
LINE
  5
250
330
1F
100
AcDbEntity
  8
0
  6
Continuous
 62
     7
370
    15
100
AcDbLine
 10
-3.311445189
 20
4.5284392466
 30
0.0
 11
-2.9164971232
 21
4.7923351073
 31
0.0
  0
LINE
  5
251
330
1F
100
AcDbEntity
  8
0
  6
Continuous
 62
     7
370
    15
100
AcDbLine
 10
-2.9998326581
 20
4.9170555491
 30
0.0
 11
-2.9164971232
 21
4.7923351073
 31
0.0
  0
LINE
  5
252
330
1F
100
AcDbEntity
  8
0
  6
Continuous
 62
     7
370
    15
100
AcDbLine
 10
-2.4217645422
 20
5.2260393944
 30
0.0
 11
-2.3643620274
 21
5.0874574645
 31
0.0
  0
LINE
  5
253
330
1F
100
AcDbEntity
  8
0
  6
Continuous
 62
     7
370
    15
100
AcDbLine
 10
-2.3643620274
 20
5.0874574645
 30
0.0
 11
-1.9255192494
 21
5.2692320949
 31
0.0
  0
LINE
  5
254
330
1F
100
AcDbEntity
  8
0
  6
Continuous
 62
     7
370
    15
100
AcDbLine
 10
-1.9829217643
 20
5.4078140248
 30
0.0
 11
-1.9255192494
 21
5.2692320949
 31
0.0
  0
LINE
  5
255
330
1F
100
AcDbEntity
  8
0
  6
Continuous
 62
     7
370
    15
100
AcDbLine
 10
-1.3556813073
 20
5.5980853372
 30
0.0
 11
-1.326417759
 21
5.4509675452
 31
0.0
  0
LINE
  5
256
330
1F
100
AcDbEntity
  8
0
  6
Continuous
 62
     7
370
    15
100
AcDbLine
 10
-1.326417759
 20
5.4509675452
 30
0.0
 11
-0.8605447508
 21
5.5436354481
 31
0.0
  0
LINE
  5
257
330
1F
100
AcDbEntity
  8
0
  6
Continuous
 62
     7
370
    15
100
AcDbLine
 10
-0.8898082991
 20
5.6907532402
 30
0.0
 11
-0.8605447508
 21
5.5436354481
 31
0.0
  0
LINE
  5
258
330
1F
100
AcDbEntity
  8
0
  6
Continuous
 62
     7
370
    15
100
AcDbLine
 10
-0.2375
 20
5.755
 30
0.0
 11
-0.2375
 21
5.605
 31
0.0
  0
LINE
  5
259
330
1F
100
AcDbEntity
  8
0
  6
Continuous
 62
     7
370
    15
100
AcDbLine
 10
-0.2375
 20
5.605
 30
0.0
 11
0.2375
 21
5.605
 31
0.0
  0
LINE
  5
25A
330
1F
100
AcDbEntity
  8
0
  6
Continuous
 62
     7
370
    15
100
AcDbLine
 10
0.2375
 20
5.755
 30
0.0
 11
0.2375
 21
5.605
 31
0.0
  0
LINE
  5
25B
330
1F
100
AcDbEntity
  8
0
  6
Continuous
 62
     7
370
    15
100
AcDbLine
 10
0.8898082991
 20
5.6907532402
 30
0.0
 11
0.8605447508
 21
5.5436354481
 31
0.0
  0
LINE
  5
25C
330
1F
100
AcDbEntity
  8
0
  6
Continuous
 62
     7
370
    15
100
AcDbLine
 10
0.8605447508
 20
5.5436354481
 30
0.0
 11
1.326417759
 21
5.4509675452
 31
0.0
  0
LINE
  5
25D
330
1F
100
AcDbEntity
  8
0
  6
Continuous
 62
     7
370
    15
100
AcDbLine
 10
1.3556813073
 20
5.5980853372
 30
0.0
 11
1.326417759
 21
5.4509675452
 31
0.0
  0
LINE
  5
25E
330
1F
100
AcDbEntity
  8
0
  6
Continuous
 62
     7
370
    15
100
AcDbLine
 10
1.9829217643
 20
5.4078140248
 30
0.0
 11
1.9255192494
 21
5.2692320949
 31
0.0
  0
LINE
  5
25F
330
1F
100
AcDbEntity
  8
0
  6
Continuous
 62
     7
370
    15
100
AcDbLine
 10
1.9255192494
 20
5.2692320949
 30
0.0
 11
2.3643620274
 21
5.0874574645
 31
0.0
  0
LINE
  5
260
330
1F
100
AcDbEntity
  8
0
  6
Continuous
 62
     7
370
    15
100
AcDbLine
 10
2.4217645422
 20
5.2260393944
 30
0.0
 11
2.3643620274
 21
5.0874574645
 31
0.0
  0
LINE
  5
261
330
1F
100
AcDbEntity
  8
0
  6
Continuous
 62
     7
370
    15
100
AcDbLine
 10
2.9998326581
 20
4.9170555491
 30
0.0
 11
2.9164971232
 21
4.7923351073
 31
0.0
  0
LINE
  5
262
330
1F
100
AcDbEntity
  8
0
  6
Continuous
 62
     7
370
    15
100
AcDbLine
 10
2.9164971232
 20
4.7923351073
 30
0.0
 11
3.311445189
 21
4.5284392466
 31
0.0
  0
LINE
  5
263
330
1F
100
AcDbEntity
  8
0
  6
Continuous
 62
     7
370
    15
100
AcDbLine
 10
3.3947807239
 20
4.6531596885
 30
0.0
 11
3.311445189
 21
4.5284392466
 31
0.0
  0
LINE
  5
264
330
1F
100
AcDbEntity
  8
0
  6
Continuous
 62
     7
370
    15
100
AcDbLine
 10
3.9014616652
 20
4.2373373863
 30
0.0
 11
3.795395648
 21
4.1312713691
 31
0.0
  0
LINE
  5
265
330
1F
100
AcDbEntity
  8
0
  6
Continuous
 62
     7
370
    15
100
AcDbLine
 10
3.795395648
 20
4.1312713691
 30
0.0
 11
4.1312713691
 21
3.795395648
 31
0.0
  0
LINE
  5
266
330
1F
100
AcDbEntity
  8
0
  6
Continuous
 62
     7
370
    15
100
AcDbLine
 10
4.2373373863
 20
3.9014616652
 30
0.0
 11
4.1312713691
 21
3.795395648
 31
0.0
  0
LINE
  5
267
330
1F
100
AcDbEntity
  8
0
  6
Continuous
 62
     7
370
    15
100
AcDbLine
 10
4.6531596885
 20
3.3947807239
 30
0.0
 11
4.5284392466
 21
3.311445189
 31
0.0
  0
LINE
  5
268
330
1F
100
AcDbEntity
  8
0
  6
Continuous
 62
     7
370
    15
100
AcDbLine
 10
4.5284392466
 20
3.311445189
 30
0.0
 11
4.7923351073
 21
2.9164971232
 31
0.0
  0
LINE
  5
269
330
1F
100
AcDbEntity
  8
0
  6
Continuous
 62
     7
370
    15
100
AcDbLine
 10
4.9170555491
 20
2.9998326581
 30
0.0
 11
4.7923351073
 21
2.9164971232
 31
0.0
  0
LINE
  5
26A
330
1F
100
AcDbEntity
  8
0
  6
Continuous
 62
     7
370
    15
100
AcDbLine
 10
5.2260393944
 20
2.4217645422
 30
0.0
 11
5.0874574645
 21
2.3643620274
 31
0.0
  0
LINE
  5
26B
330
1F
100
AcDbEntity
  8
0
  6
Continuous
 62
     7
370
    15
100
AcDbLine
 10
5.0874574645
 20
2.3643620274
 30
0.0
 11
5.2692320949
 21
1.9255192494
 31
0.0
  0
LINE
  5
26C
330
1F
100
AcDbEntity
  8
0
  6
Continuous
 62
     7
370
    15
100
AcDbLine
 10
5.4078140248
 20
1.9829217643
 30
0.0
 11
5.2692320949
 21
1.9255192494
 31
0.0
  0
LINE
  5
26D
330
1F
100
AcDbEntity
  8
0
  6
Continuous
 62
     7
370
    15
100
AcDbLine
 10
5.5980853372
 20
1.3556813073
 30
0.0
 11
5.4509675452
 21
1.326417759
 31
0.0
  0
LINE
  5
26E
330
1F
100
AcDbEntity
  8
0
  6
Continuous
 62
     7
370
    15
100
AcDbLine
 10
5.4509675452
 20
1.326417759
 30
0.0
 11
5.5436354481
 21
0.8605447508
 31
0.0
  0
LINE
  5
26F
330
1F
100
AcDbEntity
  8
0
  6
Continuous
 62
     7
370
    15
100
AcDbLine
 10
5.6907532402
 20
0.8898082991
 30
0.0
 11
5.5436354481
 21
0.8605447508
 31
0.0
  0
LINE
  5
270
330
1F
100
AcDbEntity
  8
0
  6
Continuous
 62
     7
370
    15
100
AcDbLine
 10
5.755
 20
0.2375
 30
0.0
 11
5.605
 21
0.2375
 31
0.0
  0
LINE
  5
271
330
1F
100
AcDbEntity
  8
0
  6
Continuous
 62
     7
370
    15
100
AcDbLine
 10
5.605
 20
0.2375
 30
0.0
 11
5.605
 21
-0.2375
 31
0.0
  0
LINE
  5
272
330
1F
100
AcDbEntity
  8
0
  6
Continuous
 62
     7
370
    15
100
AcDbLine
 10
5.755
 20
-0.2375
 30
0.0
 11
5.605
 21
-0.2375
 31
0.0
  0
LINE
  5
273
330
1F
100
AcDbEntity
  8
0
  6
Continuous
 62
     7
370
    15
100
AcDbLine
 10
5.6907532402
 20
-0.8898082991
 30
0.0
 11
5.5436354481
 21
-0.8605447508
 31
0.0
  0
LINE
  5
274
330
1F
100
AcDbEntity
  8
0
  6
Continuous
 62
     7
370
    15
100
AcDbLine
 10
5.5436354481
 20
-0.8605447508
 30
0.0
 11
5.4509675452
 21
-1.326417759
 31
0.0
  0
LINE
  5
275
330
1F
100
AcDbEntity
  8
0
  6
Continuous
 62
     7
370
    15
100
AcDbLine
 10
5.5980853372
 20
-1.3556813073
 30
0.0
 11
5.4509675452
 21
-1.326417759
 31
0.0
  0
LINE
  5
276
330
1F
100
AcDbEntity
  8
0
  6
Continuous
 62
     7
370
    15
100
AcDbLine
 10
5.4078140248
 20
-1.9829217643
 30
0.0
 11
5.2692320949
 21
-1.9255192494
 31
0.0
  0
LINE
  5
277
330
1F
100
AcDbEntity
  8
0
  6
Continuous
 62
     7
370
    15
100
AcDbLine
 10
5.2692320949
 20
-1.9255192494
 30
0.0
 11
5.0874574645
 21
-2.3643620274
 31
0.0
  0
LINE
  5
278
330
1F
100
AcDbEntity
  8
0
  6
Continuous
 62
     7
370
    15
100
AcDbLine
 10
5.2260393944
 20
-2.4217645422
 30
0.0
 11
5.0874574645
 21
-2.3643620274
 31
0.0
  0
LINE
  5
279
330
1F
100
AcDbEntity
  8
0
  6
Continuous
 62
     7
370
    15
100
AcDbLine
 10
4.9170555491
 20
-2.9998326581
 30
0.0
 11
4.7923351073
 21
-2.9164971232
 31
0.0
  0
LINE
  5
27A
330
1F
100
AcDbEntity
  8
0
  6
Continuous
 62
     7
370
    15
100
AcDbLine
 10
4.7923351073
 20
-2.9164971232
 30
0.0
 11
4.5284392466
 21
-3.311445189
 31
0.0
  0
LINE
  5
27B
330
1F
100
AcDbEntity
  8
0
  6
Continuous
 62
     7
370
    15
100
AcDbLine
 10
4.6531596885
 20
-3.3947807239
 30
0.0
 11
4.5284392466
 21
-3.311445189
 31
0.0
  0
LINE
  5
27C
330
1F
100
AcDbEntity
  8
0
  6
Continuous
 62
     7
370
    15
100
AcDbLine
 10
4.2373373863
 20
-3.9014616652
 30
0.0
 11
4.1312713691
 21
-3.795395648
 31
0.0
  0
LINE
  5
27D
330
1F
100
AcDbEntity
  8
0
  6
Continuous
 62
     7
370
    15
100
AcDbLine
 10
4.1312713691
 20
-3.795395648
 30
0.0
 11
3.795395648
 21
-4.1312713691
 31
0.0
  0
LINE
  5
27E
330
1F
100
AcDbEntity
  8
0
  6
Continuous
 62
     7
370
    15
100
AcDbLine
 10
3.9014616652
 20
-4.2373373863
 30
0.0
 11
3.795395648
 21
-4.1312713691
 31
0.0
  0
LINE
  5
27F
330
1F
100
AcDbEntity
  8
0
  6
Continuous
 62
     7
370
    15
100
AcDbLine
 10
3.3947807239
 20
-4.6531596885
 30
0.0
 11
3.311445189
 21
-4.5284392466
 31
0.0
  0
LINE
  5
280
330
1F
100
AcDbEntity
  8
0
  6
Continuous
 62
     7
370
    15
100
AcDbLine
 10
3.311445189
 20
-4.5284392466
 30
0.0
 11
2.9164971232
 21
-4.7923351073
 31
0.0
  0
LINE
  5
281
330
1F
100
AcDbEntity
  8
0
  6
Continuous
 62
     7
370
    15
100
AcDbLine
 10
2.9998326581
 20
-4.9170555491
 30
0.0
 11
2.9164971232
 21
-4.7923351073
 31
0.0
  0
LINE
  5
282
330
1F
100
AcDbEntity
  8
0
  6
Continuous
 62
     7
370
    15
100
AcDbLine
 10
2.4217645422
 20
-5.2260393944
 30
0.0
 11
2.3643620274
 21
-5.0874574645
 31
0.0
  0
LINE
  5
283
330
1F
100
AcDbEntity
  8
0
  6
Continuous
 62
     7
370
    15
100
AcDbLine
 10
2.3643620274
 20
-5.0874574645
 30
0.0
 11
1.9255192494
 21
-5.2692320949
 31
0.0
  0
LINE
  5
284
330
1F
100
AcDbEntity
  8
0
  6
Continuous
 62
     7
370
    15
100
AcDbLine
 10
1.9829217643
 20
-5.4078140248
 30
0.0
 11
1.9255192494
 21
-5.2692320949
 31
0.0
  0
LINE
  5
285
330
1F
100
AcDbEntity
  8
0
  6
Continuous
 62
     7
370
    15
100
AcDbLine
 10
1.3556813073
 20
-5.5980853372
 30
0.0
 11
1.326417759
 21
-5.4509675452
 31
0.0
  0
LINE
  5
286
330
1F
100
AcDbEntity
  8
0
  6
Continuous
 62
     7
370
    15
100
AcDbLine
 10
1.326417759
 20
-5.4509675452
 30
0.0
 11
0.8605447508
 21
-5.5436354481
 31
0.0
  0
LINE
  5
287
330
1F
100
AcDbEntity
  8
0
  6
Continuous
 62
     7
370
    15
100
AcDbLine
 10
0.8898082991
 20
-5.6907532402
 30
0.0
 11
0.8605447508
 21
-5.5436354481
 31
0.0
  0
LINE
  5
288
330
1F
100
AcDbEntity
  8
0
  6
Continuous
 62
     7
370
    15
100
AcDbLine
 10
0.2375
 20
-5.755
 30
0.0
 11
0.2375
 21
-5.605
 31
0.0
  0
LINE
  5
289
330
1F
100
AcDbEntity
  8
0
  6
Continuous
 62
     7
370
    15
100
AcDbLine
 10
0.2375
 20
-5.605
 30
0.0
 11
-0.2375
 21
-5.605
 31
0.0
  0
LINE
  5
28A
330
1F
100
AcDbEntity
  8
0
  6
Continuous
 62
     7
370
    15
100
AcDbLine
 10
-0.2375
 20
-5.755
 30
0.0
 11
-0.2375
 21
-5.605
 31
0.0
  0
LINE
  5
28B
330
1F
100
AcDbEntity
  8
0
  6
Continuous
 62
     7
370
    15
100
AcDbLine
 10
-0.8898082991
 20
-5.6907532402
 30
0.0
 11
-0.8605447508
 21
-5.5436354481
 31
0.0
  0
LINE
  5
28C
330
1F
100
AcDbEntity
  8
0
  6
Continuous
 62
     7
370
    15
100
AcDbLine
 10
-0.8605447508
 20
-5.5436354481
 30
0.0
 11
-1.326417759
 21
-5.4509675452
 31
0.0
  0
LINE
  5
28D
330
1F
100
AcDbEntity
  8
0
  6
Continuous
 62
     7
370
    15
100
AcDbLine
 10
-1.3556813073
 20
-5.5980853372
 30
0.0
 11
-1.326417759
 21
-5.4509675452
 31
0.0
  0
LINE
  5
28E
330
1F
100
AcDbEntity
  8
0
  6
Continuous
 62
     7
370
    15
100
AcDbLine
 10
-1.9829217643
 20
-5.4078140248
 30
0.0
 11
-1.9255192494
 21
-5.2692320949
 31
0.0
  0
LINE
  5
28F
330
1F
100
AcDbEntity
  8
0
  6
Continuous
 62
     7
370
    15
100
AcDbLine
 10
-1.9255192494
 20
-5.2692320949
 30
0.0
 11
-2.3643620274
 21
-5.0874574645
 31
0.0
  0
LINE
  5
290
330
1F
100
AcDbEntity
  8
0
  6
Continuous
 62
     7
370
    15
100
AcDbLine
 10
-2.4217645422
 20
-5.2260393944
 30
0.0
 11
-2.3643620274
 21
-5.0874574645
 31
0.0
  0
LINE
  5
291
330
1F
100
AcDbEntity
  8
0
  6
Continuous
 62
     7
370
    15
100
AcDbLine
 10
-2.9998326581
 20
-4.9170555491
 30
0.0
 11
-2.9164971232
 21
-4.7923351073
 31
0.0
  0
LINE
  5
292
330
1F
100
AcDbEntity
  8
0
  6
Continuous
 62
     7
370
    15
100
AcDbLine
 10
-2.9164971232
 20
-4.7923351073
 30
0.0
 11
-3.311445189
 21
-4.5284392466
 31
0.0
  0
LINE
  5
293
330
1F
100
AcDbEntity
  8
0
  6
Continuous
 62
     7
370
    15
100
AcDbLine
 10
-3.3947807239
 20
-4.6531596885
 30
0.0
 11
-3.311445189
 21
-4.5284392466
 31
0.0
  0
ARC
  5
294
330
1F
100
AcDbEntity
  8
0
  6
Continuous
 62
     7
370
    15
100
AcDbCircle
 10
-3.741359095
 20
-4.3974399565
 30
0.0
 40
0.2264192261781774
100
AcDbArc
 50
135.0
 51
227.9842928274
  0
ARC
  5
295
330
1F
100
AcDbEntity
  8
0
  6
Continuous
 62
     7
370
    15
100
AcDbCircle
 10
-4.3974399565
 20
-3.741359095
 30
0.0
 40
0.2264192261781511
100
AcDbArc
 50
222.0157071725
 51
315.0
  0
ARC
  5
296
330
1F
100
AcDbEntity
  8
0
  6
Continuous
 62
     7
370
    15
100
AcDbCircle
 10
0.0
 20
0.0
 30
0.0
 40
5.99999999999589
100
AcDbArc
 50
218.2974409895
 51
220.4525590105
  0
ARC
  5
297
330
1F
100
AcDbEntity
  8
0
  6
Continuous
 62
     7
370
    15
100
AcDbCircle
 10
-4.5273679062
 20
-3.5830414302
 30
0.0
 40
0.2264192261781731
100
AcDbArc
 50
123.75
 51
216.7342928274
  0
ARC
  5
298
330
1F
100
AcDbEntity
  8
0
  6
Continuous
 62
     7
370
    15
100
AcDbCircle
 10
-5.0428473314
 20
-2.8115719519
 30
0.0
 40
0.2264192261781518
100
AcDbArc
 50
210.7657071725
 51
303.75
  0
ARC
  5
299
330
1F
100
AcDbEntity
  8
0
  6
Continuous
 62
     7
370
    15
100
AcDbCircle
 10
0.0
 20
0.0
 30
0.0
 40
5.999999999997345
100
AcDbArc
 50
207.0474409895
 51
209.2025590105
  0
ARC
  5
29A
330
1F
100
AcDbEntity
  8
0
  6
Continuous
 62
     7
370
    15
100
AcDbCircle
 10
-5.1393925078
 20
-2.6309486311
 30
0.0
 40
0.2264192261781748
100
AcDbArc
 50
112.5
 51
205.4842928274
  0
ARC
  5
29B
330
1F
100
AcDbEntity
  8
0
  6
Continuous
 62
     7
370
    15
100
AcDbCircle
 10
-5.4944609114
 20
-1.7737376755
 30
0.0
 40
0.2264192261781505
100
AcDbArc
 50
199.5157071725
 51
292.5
  0
ARC
  5
29C
330
1F
100
AcDbEntity
  8
0
  6
Continuous
 62
     7
370
    15
100
AcDbCircle
 10
0.0
 20
0.0
 30
0.0
 40
5.999999999995482
100
AcDbArc
 50
195.7974409895
 51
197.9525590105
  0
ARC
  5
29D
330
1F
100
AcDbEntity
  8
0
  6
Continuous
 62
     7
370
    15
100
AcDbCircle
 10
-5.5539131375
 20
-1.5777499515
 30
0.0
 40
0.2264192261781758
100
AcDbArc
 50
101.25
 51
194.2342928274
  0
ARC
  5
29E
330
1F
100
AcDbEntity
  8
0
  6
Continuous
 62
     7
370
    15
100
AcDbCircle
 10
-5.7349254399
 20
-0.6677396549
 30
0.0
 40
0.2264192261781512
100
AcDbArc
 50
188.2657071725
 51
281.25
  0
ARC
  5
29F
330
1F
100
AcDbEntity
  8
0
  6
Continuous
 62
     7
370
    15
100
AcDbCircle
 10
0.0
 20
0.0
 30
0.0
 40
5.999999999993961
100
AcDbArc
 50
184.5474409895
 51
186.7025590105
  0
ARC
  5
2A0
330
1F
100
AcDbEntity
  8
0
  6
Continuous
 62
     7
370
    15
100
AcDbCircle
 10
-5.755
 20
-0.4639192262
 30
0.0
 40
0.2264192261781728
100
AcDbArc
 50
90.0
 51
182.9842928274
  0
ARC
  5
2A1
330
1F
100
AcDbEntity
  8
0
  6
Continuous
 62
     7
370
    15
100
AcDbCircle
 10
-5.755
 20
0.4639192262
 30
0.0
 40
0.2264192261781503
100
AcDbArc
 50
177.0157071725
 51
270.0
  0
ARC
  5
2A2
330
1F
100
AcDbEntity
  8
0
  6
Continuous
 62
     7
370
    15
100
AcDbCircle
 10
0.0
 20
0.0
 30
0.0
 40
5.999999999997722
100
AcDbArc
 50
173.2974409895
 51
175.4525590105
  0
ARC
  5
2A3
330
1F
100
AcDbEntity
  8
0
  6
Continuous
 62
     7
370
    15
100
AcDbCircle
 10
-5.7349254399
 20
0.6677396549
 30
0.0
 40
0.2264192261781773
100
AcDbArc
 50
78.75
 51
171.7342928274
  0
ARC
  5
2A4
330
1F
100
AcDbEntity
  8
0
  6
Continuous
 62
     7
370
    15
100
AcDbCircle
 10
-5.5539131375
 20
1.5777499515
 30
0.0
 40
0.2264192261781516
100
AcDbArc
 50
165.7657071725
 51
258.75
  0
ARC
  5
2A5
330
1F
100
AcDbEntity
  8
0
  6
Continuous
 62
     7
370
    15
100
AcDbCircle
 10
0.0
 20
0.0
 30
0.0
 40
5.999999999994931
100
AcDbArc
 50
162.0474409895
 51
164.2025590105
  0
ARC
  5
2A6
330
1F
100
AcDbEntity
  8
0
  6
Continuous
 62
     7
370
    15
100
AcDbCircle
 10
-5.4944609114
 20
1.7737376755
 30
0.0
 40
0.2264192261781763
100
AcDbArc
 50
67.5
 51
160.4842928274
  0
ARC
  5
2A7
330
1F
100
AcDbEntity
  8
0
  6
Continuous
 62
     7
370
    15
100
AcDbCircle
 10
-5.1393925078
 20
2.6309486311
 30
0.0
 40
0.2264192261781506
100
AcDbArc
 50
154.5157071725
 51
247.5
  0
ARC
  5
2A8
330
1F
100
AcDbEntity
  8
0
  6
Continuous
 62
     7
370
    15
100
AcDbCircle
 10
0.0
 20
0.0
 30
0.0
 40
5.999999999998187
100
AcDbArc
 50
150.7974409895
 51
152.9525590105
  0
ARC
  5
2A9
330
1F
100
AcDbEntity
  8
0
  6
Continuous
 62
     7
370
    15
100
AcDbCircle
 10
-5.0428473314
 20
2.8115719519
 30
0.0
 40
0.2264192261781748
100
AcDbArc
 50
56.25
 51
149.2342928274
  0
ARC
  5
2AA
330
1F
100
AcDbEntity
  8
0
  6
Continuous
 62
     7
370
    15
100
AcDbCircle
 10
-4.5273679062
 20
3.5830414302
 30
0.0
 40
0.2264192261781517
100
AcDbArc
 50
143.2657071725
 51
236.25
  0
ARC
  5
2AB
330
1F
100
AcDbEntity
  8
0
  6
Continuous
 62
     7
370
    15
100
AcDbCircle
 10
0.0
 20
0.0
 30
0.0
 40
5.99999999999857
100
AcDbArc
 50
139.5474409895
 51
141.7025590105
  0
ARC
  5
2AC
330
1F
100
AcDbEntity
  8
0
  6
Continuous
 62
     7
370
    15
100
AcDbCircle
 10
-4.3974399565
 20
3.741359095
 30
0.0
 40
0.2264192261781771
100
AcDbArc
 50
45.0
 51
137.9842928274
  0
ARC
  5
2AD
330
1F
100
AcDbEntity
  8
0
  6
Continuous
 62
     7
370
    15
100
AcDbCircle
 10
-3.741359095
 20
4.3974399565
 30
0.0
 40
0.2264192261781507
100
AcDbArc
 50
132.0157071725
 51
225.0
  0
ARC
  5
2AE
330
1F
100
AcDbEntity
  8
0
  6
Continuous
 62
     7
370
    15
100
AcDbCircle
 10
0.0
 20
0.0
 30
0.0
 40
5.999999999997035
100
AcDbArc
 50
128.2974409895
 51
130.4525590105
  0
ARC
  5
2AF
330
1F
100
AcDbEntity
  8
0
  6
Continuous
 62
     7
370
    15
100
AcDbCircle
 10
-3.5830414302
 20
4.5273679062
 30
0.0
 40
0.2264192261781759
100
AcDbArc
 50
33.75
 51
126.7342928274
  0
ARC
  5
2B0
330
1F
100
AcDbEntity
  8
0
  6
Continuous
 62
     7
370
    15
100
AcDbCircle
 10
-2.8115719519
 20
5.0428473314
 30
0.0
 40
0.226419226178149
100
AcDbArc
 50
120.7657071725
 51
213.75
  0
ARC
  5
2B1
330
1F
100
AcDbEntity
  8
0
  6
Continuous
 62
     7
370
    15
100
AcDbCircle
 10
0.0
 20
0.0
 30
0.0
 40
5.999999999997345
100
AcDbArc
 50
117.0474409895
 51
119.2025590105
  0
ARC
  5
2B2
330
1F
100
AcDbEntity
  8
0
  6
Continuous
 62
     7
370
    15
100
AcDbCircle
 10
-2.6309486311
 20
5.1393925078
 30
0.0
 40
0.2264192261781746
100
AcDbArc
 50
22.5
 51
115.4842928274
  0
ARC
  5
2B3
330
1F
100
AcDbEntity
  8
0
  6
Continuous
 62
     7
370
    15
100
AcDbCircle
 10
-1.7737376755
 20
5.4944609114
 30
0.0
 40
0.2264192261781539
100
AcDbArc
 50
109.5157071725
 51
202.5
  0
ARC
  5
2B4
330
1F
100
AcDbEntity
  8
0
  6
Continuous
 62
     7
370
    15
100
AcDbCircle
 10
0.0
 20
0.0
 30
0.0
 40
6.000000000004554
100
AcDbArc
 50
105.7974409895
 51
107.9525590105
  0
ARC
  5
2B5
330
1F
100
AcDbEntity
  8
0
  6
Continuous
 62
     7
370
    15
100
AcDbCircle
 10
-1.5777499515
 20
5.5539131375
 30
0.0
 40
0.2264192261781762
100
AcDbArc
 50
11.25
 51
104.2342928274
  0
ARC
  5
2B6
330
1F
100
AcDbEntity
  8
0
  6
Continuous
 62
     7
370
    15
100
AcDbCircle
 10
-0.6677396549
 20
5.7349254399
 30
0.0
 40
0.2264192261781504
100
AcDbArc
 50
98.2657071725
 51
191.25
  0
ARC
  5
2B7
330
1F
100
AcDbEntity
  8
0
  6
Continuous
 62
     7
370
    15
100
AcDbCircle
 10
0.0
 20
0.0
 30
0.0
 40
5.99999999999564
100
AcDbArc
 50
94.5474409895
 51
96.7025590105
  0
ARC
  5
2B8
330
1F
100
AcDbEntity
  8
0
  6
Continuous
 62
     7
370
    15
100
AcDbCircle
 10
-0.4639192262
 20
5.755
 30
0.0
 40
0.2264192261781752
100
AcDbArc
 50
0.0
 51
92.9842928274
  0
ARC
  5
2B9
330
1F
100
AcDbEntity
  8
0
  6
Continuous
 62
     7
370
    15
100
AcDbCircle
 10
0.4639192262
 20
5.755
 30
0.0
 40
0.2264192261781487
100
AcDbArc
 50
87.0157071725
 51
180.0
  0
ARC
  5
2BA
330
1F
100
AcDbEntity
  8
0
  6
Continuous
 62
     7
370
    15
100
AcDbCircle
 10
0.0
 20
0.0
 30
0.0
 40
5.99999999999551
100
AcDbArc
 50
83.2974409895
 51
85.4525590105
  0
ARC
  5
2BB
330
1F
100
AcDbEntity
  8
0
  6
Continuous
 62
     7
370
    15
100
AcDbCircle
 10
0.6677396549
 20
5.7349254399
 30
0.0
 40
0.2264192261781756
100
AcDbArc
 50
348.75
 51
81.7342928274
  0
ARC
  5
2BC
330
1F
100
AcDbEntity
  8
0
  6
Continuous
 62
     7
370
    15
100
AcDbCircle
 10
1.5777499515
 20
5.5539131375
 30
0.0
 40
0.2264192261781531
100
AcDbArc
 50
75.7657071725
 51
168.75
  0
ARC
  5
2BD
330
1F
100
AcDbEntity
  8
0
  6
Continuous
 62
     7
370
    15
100
AcDbCircle
 10
0.0
 20
0.0
 30
0.0
 40
6.000000000002334
100
AcDbArc
 50
72.0474409895
 51
74.2025590105
  0
ARC
  5
2BE
330
1F
100
AcDbEntity
  8
0
  6
Continuous
 62
     7
370
    15
100
AcDbCircle
 10
1.7737376755
 20
5.4944609114
 30
0.0
 40
0.2264192261781759
100
AcDbArc
 50
337.5
 51
70.4842928274
  0
ARC
  5
2BF
330
1F
100
AcDbEntity
  8
0
  6
Continuous
 62
     7
370
    15
100
AcDbCircle
 10
2.6309486311
 20
5.1393925078
 30
0.0
 40
0.2264192261781494
100
AcDbArc
 50
64.5157071725
 51
157.5
  0
ARC
  5
2C0
330
1F
100
AcDbEntity
  8
0
  6
Continuous
 62
     7
370
    15
100
AcDbCircle
 10
0.0
 20
0.0
 30
0.0
 40
5.999999999994572
100
AcDbArc
 50
60.7974409895
 51
62.9525590105
  0
ARC
  5
2C1
330
1F
100
AcDbEntity
  8
0
  6
Continuous
 62
     7
370
    15
100
AcDbCircle
 10
2.8115719519
 20
5.0428473314
 30
0.0
 40
0.2264192261781762
100
AcDbArc
 50
326.25
 51
59.2342928274
  0
ARC
  5
2C2
330
1F
100
AcDbEntity
  8
0
  6
Continuous
 62
     7
370
    15
100
AcDbCircle
 10
3.5830414302
 20
4.5273679062
 30
0.0
 40
0.2264192261781503
100
AcDbArc
 50
53.2657071725
 51
146.25
  0
ARC
  5
2C3
330
1F
100
AcDbEntity
  8
0
  6
Continuous
 62
     7
370
    15
100
AcDbCircle
 10
0.0
 20
0.0
 30
0.0
 40
5.999999999997704
100
AcDbArc
 50
49.5474409895
 51
51.7025590105
  0
ARC
  5
2C4
330
1F
100
AcDbEntity
  8
0
  6
Continuous
 62
     7
370
    15
100
AcDbCircle
 10
3.741359095
 20
4.3974399565
 30
0.0
 40
0.2264192261781767
100
AcDbArc
 50
315.0
 51
47.9842928274
  0
ARC
  5
2C5
330
1F
100
AcDbEntity
  8
0
  6
Continuous
 62
     7
370
    15
100
AcDbCircle
 10
4.3974399565
 20
3.741359095
 30
0.0
 40
0.2264192261781506
100
AcDbArc
 50
42.0157071725
 51
135.0
  0
ARC
  5
2C6
330
1F
100
AcDbEntity
  8
0
  6
Continuous
 62
     7
370
    15
100
AcDbCircle
 10
0.0
 20
0.0
 30
0.0
 40
5.999999999994851
100
AcDbArc
 50
38.2974409895
 51
40.4525590105
  0
ARC
  5
2C7
330
1F
100
AcDbEntity
  8
0
  6
Continuous
 62
     7
370
    15
100
AcDbCircle
 10
4.5273679062
 20
3.5830414302
 30
0.0
 40
0.2264192261781745
100
AcDbArc
 50
303.75
 51
36.7342928274
  0
ARC
  5
2C8
330
1F
100
AcDbEntity
  8
0
  6
Continuous
 62
     7
370
    15
100
AcDbCircle
 10
5.0428473314
 20
2.8115719519
 30
0.0
 40
0.2264192261781502
100
AcDbArc
 50
30.7657071725
 51
123.75
  0
ARC
  5
2C9
330
1F
100
AcDbEntity
  8
0
  6
Continuous
 62
     7
370
    15
100
AcDbCircle
 10
0.0
 20
0.0
 30
0.0
 40
5.999999999996537
100
AcDbArc
 50
27.0474409895
 51
29.2025590105
  0
ARC
  5
2CA
330
1F
100
AcDbEntity
  8
0
  6
Continuous
 62
     7
370
    15
100
AcDbCircle
 10
5.1393925078
 20
2.6309486311
 30
0.0
 40
0.2264192261781761
100
AcDbArc
 50
292.5
 51
25.4842928274
  0
ARC
  5
2CB
330
1F
100
AcDbEntity
  8
0
  6
Continuous
 62
     7
370
    15
100
AcDbCircle
 10
5.4944609114
 20
1.7737376755
 30
0.0
 40
0.2264192261781518
100
AcDbArc
 50
19.5157071725
 51
112.5
  0
ARC
  5
2CC
330
1F
100
AcDbEntity
  8
0
  6
Continuous
 62
     7
370
    15
100
AcDbCircle
 10
0.0
 20
0.0
 30
0.0
 40
5.999999999997518
100
AcDbArc
 50
15.7974409895
 51
17.9525590105
  0
ARC
  5
2CD
330
1F
100
AcDbEntity
  8
0
  6
Continuous
 62
     7
370
    15
100
AcDbCircle
 10
5.5539131375
 20
1.5777499515
 30
0.0
 40
0.2264192261781769
100
AcDbArc
 50
281.25
 51
14.2342928274
  0
ARC
  5
2CE
330
1F
100
AcDbEntity
  8
0
  6
Continuous
 62
     7
370
    15
100
AcDbCircle
 10
5.7349254399
 20
0.6677396549
 30
0.0
 40
0.2264192261781741
100
AcDbArc
 50
8.2657071726
 51
101.25
  0
ARC
  5
2CF
330
1F
100
AcDbEntity
  8
0
  6
Continuous
 62
     7
370
    15
100
AcDbCircle
 10
0.0
 20
0.0
 30
0.0
 40
5.99999999998853
100
AcDbArc
 50
4.5474409895
 51
6.7025590105
  0
ARC
  5
2D0
330
1F
100
AcDbEntity
  8
0
  6
Continuous
 62
     7
370
    15
100
AcDbCircle
 10
5.755
 20
0.4639192262
 30
0.0
 40
0.2264192261781777
100
AcDbArc
 50
270.0
 51
2.9842928274
  0
ARC
  5
2D1
330
1F
100
AcDbEntity
  8
0
  6
Continuous
 62
     7
370
    15
100
AcDbCircle
 10
5.755
 20
-0.4639192262
 30
0.0
 40
0.2264192261781521
100
AcDbArc
 50
357.0157071725
 51
90.0
  0
ARC
  5
2D2
330
1F
100
AcDbEntity
  8
0
  6
Continuous
 62
     7
370
    15
100
AcDbCircle
 10
0.0
 20
0.0
 30
0.0
 40
5.999999999998594
100
AcDbArc
 50
353.2974409895
 51
355.4525590105
  0
ARC
  5
2D3
330
1F
100
AcDbEntity
  8
0
  6
Continuous
 62
     7
370
    15
100
AcDbCircle
 10
5.7349254399
 20
-0.6677396549
 30
0.0
 40
0.2264192261781735
100
AcDbArc
 50
258.75
 51
351.7342928274
  0
ARC
  5
2D4
330
1F
100
AcDbEntity
  8
0
  6
Continuous
 62
     7
370
    15
100
AcDbCircle
 10
5.5539131375
 20
-1.5777499515
 30
0.0
 40
0.2264192261781497
100
AcDbArc
 50
345.7657071725
 51
78.75
  0
ARC
  5
2D5
330
1F
100
AcDbEntity
  8
0
  6
Continuous
 62
     7
370
    15
100
AcDbCircle
 10
0.0
 20
0.0
 30
0.0
 40
5.999999999997965
100
AcDbArc
 50
342.0474409895
 51
344.2025590105
  0
ARC
  5
2D6
330
1F
100
AcDbEntity
  8
0
  6
Continuous
 62
     7
370
    15
100
AcDbCircle
 10
5.4944609114
 20
-1.7737376755
 30
0.0
 40
0.2264192261781757
100
AcDbArc
 50
247.5
 51
340.4842928274
  0
ARC
  5
2D7
330
1F
100
AcDbEntity
  8
0
  6
Continuous
 62
     7
370
    15
100
AcDbCircle
 10
5.1393925078
 20
-2.6309486311
 30
0.0
 40
0.2264192261781527
100
AcDbArc
 50
334.5157071725
 51
67.5
  0
ARC
  5
2D8
330
1F
100
AcDbEntity
  8
0
  6
Continuous
 62
     7
370
    15
100
AcDbCircle
 10
0.0
 20
0.0
 30
0.0
 40
5.999999999995468
100
AcDbArc
 50
330.7974409895
 51
332.9525590105
  0
ARC
  5
2D9
330
1F
100
AcDbEntity
  8
0
  6
Continuous
 62
     7
370
    15
100
AcDbCircle
 10
5.0428473314
 20
-2.8115719519
 30
0.0
 40
0.2264192261781736
100
AcDbArc
 50
236.25
 51
329.2342928274
  0
ARC
  5
2DA
330
1F
100
AcDbEntity
  8
0
  6
Continuous
 62
     7
370
    15
100
AcDbCircle
 10
4.5273679062
 20
-3.5830414302
 30
0.0
 40
0.2264192261781506
100
AcDbArc
 50
323.2657071725
 51
56.25
  0
ARC
  5
2DB
330
1F
100
AcDbEntity
  8
0
  6
Continuous
 62
     7
370
    15
100
AcDbCircle
 10
0.0
 20
0.0
 30
0.0
 40
5.99999999999755
100
AcDbArc
 50
319.5474409895
 51
321.7025590105
  0
ARC
  5
2DC
330
1F
100
AcDbEntity
  8
0
  6
Continuous
 62
     7
370
    15
100
AcDbCircle
 10
4.3974399565
 20
-3.741359095
 30
0.0
 40
0.2264192261781762
100
AcDbArc
 50
225.0
 51
317.9842928274
  0
ARC
  5
2DD
330
1F
100
AcDbEntity
  8
0
  6
Continuous
 62
     7
370
    15
100
AcDbCircle
 10
3.741359095
 20
-4.3974399565
 30
0.0
 40
0.226419226178151
100
AcDbArc
 50
312.0157071725
 51
45.0
  0
ARC
  5
2DE
330
1F
100
AcDbEntity
  8
0
  6
Continuous
 62
     7
370
    15
100
AcDbCircle
 10
0.0
 20
0.0
 30
0.0
 40
5.999999999996887
100
AcDbArc
 50
308.2974409895
 51
310.4525590105
  0
ARC
  5
2DF
330
1F
100
AcDbEntity
  8
0
  6
Continuous
 62
     7
370
    15
100
AcDbCircle
 10
3.5830414302
 20
-4.5273679062
 30
0.0
 40
0.2264192261781763
100
AcDbArc
 50
213.75
 51
306.7342928274
  0
ARC
  5
2E0
330
1F
100
AcDbEntity
  8
0
  6
Continuous
 62
     7
370
    15
100
AcDbCircle
 10
2.8115719519
 20
-5.0428473314
 30
0.0
 40
0.2264192261781523
100
AcDbArc
 50
300.7657071725
 51
33.75
  0
ARC
  5
2E1
330
1F
100
AcDbEntity
  8
0
  6
Continuous
 62
     7
370
    15
100
AcDbCircle
 10
0.0
 20
0.0
 30
0.0
 40
5.999999999998317
100
AcDbArc
 50
297.0474409895
 51
299.2025590105
  0
ARC
  5
2E2
330
1F
100
AcDbEntity
  8
0
  6
Continuous
 62
     7
370
    15
100
AcDbCircle
 10
2.6309486311
 20
-5.1393925078
 30
0.0
 40
0.2264192261781749
100
AcDbArc
 50
202.5
 51
295.4842928274
  0
ARC
  5
2E3
330
1F
100
AcDbEntity
  8
0
  6
Continuous
 62
     7
370
    15
100
AcDbCircle
 10
1.7737376755
 20
-5.4944609114
 30
0.0
 40
0.2264192261781503
100
AcDbArc
 50
289.5157071725
 51
22.5
  0
ARC
  5
2E4
330
1F
100
AcDbEntity
  8
0
  6
Continuous
 62
     7
370
    15
100
AcDbCircle
 10
0.0
 20
0.0
 30
0.0
 40
5.999999999997521
100
AcDbArc
 50
285.7974409895
 51
287.9525590105
  0
ARC
  5
2E5
330
1F
100
AcDbEntity
  8
0
  6
Continuous
 62
     7
370
    15
100
AcDbCircle
 10
1.5777499515
 20
-5.5539131375
 30
0.0
 40
0.2264192261781775
100
AcDbArc
 50
191.25
 51
284.2342928274
  0
ARC
  5
2E6
330
1F
100
AcDbEntity
  8
0
  6
Continuous
 62
     7
370
    15
100
AcDbCircle
 10
0.6677396549
 20
-5.7349254399
 30
0.0
 40
0.2264192261781524
100
AcDbArc
 50
278.2657071725
 51
11.25
  0
ARC
  5
2E7
330
1F
100
AcDbEntity
  8
0
  6
Continuous
 62
     7
370
    15
100
AcDbCircle
 10
0.0
 20
0.0
 30
0.0
 40
5.999999999994773
100
AcDbArc
 50
274.5474409895
 51
276.7025590105
  0
ARC
  5
2E8
330
1F
100
AcDbEntity
  8
0
  6
Continuous
 62
     7
370
    15
100
AcDbCircle
 10
0.4639192262
 20
-5.755
 30
0.0
 40
0.2264192261781776
100
AcDbArc
 50
180.0
 51
272.9842928274
  0
ARC
  5
2E9
330
1F
100
AcDbEntity
  8
0
  6
Continuous
 62
     7
370
    15
100
AcDbCircle
 10
-0.4639192262
 20
-5.755
 30
0.0
 40
0.2264192261781512
100
AcDbArc
 50
267.0157071725
 51
0.0
  0
ARC
  5
2EA
330
1F
100
AcDbEntity
  8
0
  6
Continuous
 62
     7
370
    15
100
AcDbCircle
 10
0.0
 20
0.0
 30
0.0
 40
5.999999999998612
100
AcDbArc
 50
263.2974409895
 51
265.4525590105
  0
ARC
  5
2EB
330
1F
100
AcDbEntity
  8
0
  6
Continuous
 62
     7
370
    15
100
AcDbCircle
 10
-0.6677396549
 20
-5.7349254399
 30
0.0
 40
0.2264192261781756
100
AcDbArc
 50
168.75
 51
261.7342928274
  0
ARC
  5
2EC
330
1F
100
AcDbEntity
  8
0
  6
Continuous
 62
     7
370
    15
100
AcDbCircle
 10
-1.5777499515
 20
-5.5539131375
 30
0.0
 40
0.2264192261781508
100
AcDbArc
 50
255.7657071725
 51
348.75
  0
ARC
  5
2ED
330
1F
100
AcDbEntity
  8
0
  6
Continuous
 62
     7
370
    15
100
AcDbCircle
 10
0.0
 20
0.0
 30
0.0
 40
5.999999999994679
100
AcDbArc
 50
252.0474409895
 51
254.2025590105
  0
ARC
  5
2EE
330
1F
100
AcDbEntity
  8
0
  6
Continuous
 62
     7
370
    15
100
AcDbCircle
 10
-1.7737376755
 20
-5.4944609114
 30
0.0
 40
0.2264192261781746
100
AcDbArc
 50
157.5
 51
250.4842928274
  0
ARC
  5
2EF
330
1F
100
AcDbEntity
  8
0
  6
Continuous
 62
     7
370
    15
100
AcDbCircle
 10
-2.6309486311
 20
-5.1393925078
 30
0.0
 40
0.2264192261781523
100
AcDbArc
 50
244.5157071725
 51
337.5
  0
ARC
  5
2F0
330
1F
100
AcDbEntity
  8
0
  6
Continuous
 62
     7
370
    15
100
AcDbCircle
 10
0.0
 20
0.0
 30
0.0
 40
5.999999999995456
100
AcDbArc
 50
240.7974409895
 51
242.9525590105
  0
ARC
  5
2F1
330
1F
100
AcDbEntity
  8
0
  6
Continuous
 62
     7
370
    15
100
AcDbCircle
 10
-2.8115719519
 20
-5.0428473314
 30
0.0
 40
0.2264192261781755
100
AcDbArc
 50
146.25
 51
239.2342928274
  0
ARC
  5
2F2
330
1F
100
AcDbEntity
  8
0
  6
Continuous
 62
     7
370
    15
100
AcDbCircle
 10
-3.5830414302
 20
-4.5273679062
 30
0.0
 40
0.2264192261781516
100
AcDbArc
 50
233.2657071725
 51
326.25
  0
ARC
  5
2F3
330
1F
100
AcDbEntity
  8
0
  6
Continuous
 62
     7
370
    15
100
AcDbCircle
 10
0.0
 20
0.0
 30
0.0
 40
5.999999999993118
100
AcDbArc
 50
229.5474409895
 51
231.7025590105
  0
ARC
  5
2F4
330
1F
100
AcDbEntity
  8
0
  6
Continuous
 62
     7
370
    15
100
AcDbCircle
 10
-5.2446252249
 20
6.390594327
 30
0.0
 40
6.15309432696827
100
AcDbArc
 50
282.5603542124
 51
293.0526311728
  0
ARC
  5
2F5
330
1F
100
AcDbEntity
  8
0
  6
Continuous
 62
     7
370
    15
100
AcDbCircle
 10
-6.390594327
 20
-5.2446252249
 30
0.0
 40
6.153094326968648
100
AcDbArc
 50
55.6973688272
 51
66.1896457876
  0
ARC
  5
2F6
330
1F
100
AcDbEntity
  8
0
  6
Continuous
 62
     7
370
    15
100
AcDbCircle
 10
-5.9740013496
 20
3.1931702475
 30
0.0
 40
4.534791946596954
100
AcDbArc
 50
312.2845876252
 51
319.5107752132
  0
ARC
  5
2F7
330
1F
100
AcDbEntity
  8
0
  6
Continuous
 62
     7
370
    15
100
AcDbCircle
 10
-6.4821692006
 20
-1.9663445296
 30
0.0
 40
4.534791946597074
100
AcDbArc
 50
29.2392247868
 51
36.4654123748
  0
ARC
  5
2F8
330
1F
100
AcDbEntity
  8
0
  6
Continuous
 62
     7
370
    15
100
AcDbCircle
 10
-2.3998273291
 20
7.9111704818
 30
0.0
 40
6.153094326961557
100
AcDbArc
 50
278.4333839541
 51
280.6181240533
  0
ARC
  5
2F9
330
1F
100
AcDbEntity
  8
0
  6
Continuous
 62
     7
370
    15
100
AcDbCircle
 10
-7.2909764729
 20
3.8971081167
 30
0.0
 40
6.153094326965127
100
AcDbArc
 50
338.1318759467
 51
340.3166160459
  0
ARC
  5
2FA
330
1F
100
AcDbEntity
  8
0
  6
Continuous
 62
     7
370
    15
100
AcDbCircle
 10
-4.2972842236
 20
5.2362559769
 30
0.0
 40
4.534791946596308
100
AcDbArc
 50
306.8031603374
 51
311.9468396626
  0
ARC
  5
2FB
330
1F
100
AcDbEntity
  8
0
  6
Continuous
 62
     7
370
    15
100
AcDbCircle
 10
-4.2972842236
 20
5.2362559769
 30
0.0
 40
4.534791946596816
100
AcDbArc
 50
315.0677677292
 51
319.6483396452
  0
ARC
  5
2FC
330
1F
100
AcDbEntity
  8
0
  6
Continuous
 62
     7
370
    15
100
AcDbCircle
 10
0.8103225231
 20
8.2273426457
 30
0.0
 40
6.153094326967922
100
AcDbArc
 50
249.8411231478
 51
254.4287936306
  0
ARC
  5
2FD
330
1F
100
AcDbEntity
  8
0
  6
Continuous
 62
     7
370
    15
100
AcDbCircle
 10
-7.2909764729
 20
3.8971081167
 30
0.0
 40
6.153094326969163
100
AcDbArc
 50
341.8212063694
 51
346.4088768522
  0
ARC
  5
2FE
330
1F
100
AcDbEntity
  8
0
  6
Continuous
 62
     7
370
    15
100
AcDbCircle
 10
-1.9663445296
 20
6.4821692006
 30
0.0
 40
4.534791946594789
100
AcDbArc
 50
276.6016603548
 51
281.1822322708
  0
ARC
  5
2FF
330
1F
100
AcDbEntity
  8
0
  6
Continuous
 62
     7
370
    15
100
AcDbCircle
 10
-4.2972842236
 20
5.2362559769
 30
0.0
 40
4.534791946596809
100
AcDbArc
 50
321.7392247868
 51
328.9654123748
  0
ARC
  5
300
330
1F
100
AcDbEntity
  8
0
  6
Continuous
 62
     7
370
    15
100
AcDbCircle
 10
3.8971081167
 20
7.2909764729
 30
0.0
 40
6.153094326968285
100
AcDbArc
 50
215.0603542124
 51
225.5526311728
  0
ARC
  5
301
330
1F
100
AcDbEntity
  8
0
  6
Continuous
 62
     7
370
    15
100
AcDbCircle
 10
-7.2909764729
 20
3.8971081167
 30
0.0
 40
6.153094326968144
100
AcDbArc
 50
348.1973688272
 51
358.6896457876
  0
ARC
  5
302
330
1F
100
AcDbEntity
  8
0
  6
Continuous
 62
     7
370
    15
100
AcDbCircle
 10
0.6639532941
 20
6.7412309245
 30
0.0
 40
4.534791946596272
100
AcDbArc
 50
244.7845876252
 51
252.0107752132
  0
ARC
  5
303
330
1F
100
AcDbEntity
  8
0
  6
Continuous
 62
     7
370
    15
100
AcDbCircle
 10
0.8103225231
 20
8.2273426457
 30
0.0
 40
6.153094326966452
100
AcDbArc
 50
255.9333839541
 51
258.1181240533
  0
ARC
  5
304
330
1F
100
AcDbEntity
  8
0
  6
Continuous
 62
     7
370
    15
100
AcDbCircle
 10
-5.2446252249
 20
6.390594327
 30
0.0
 40
6.153094326966071
100
AcDbArc
 50
315.6318759467
 51
317.8166160459
  0
ARC
  5
305
330
1F
100
AcDbEntity
  8
0
  6
Continuous
 62
     7
370
    15
100
AcDbCircle
 10
-1.9663445296
 20
6.4821692006
 30
0.0
 40
4.534791946596378
100
AcDbArc
 50
284.3031603374
 51
289.4468396626
  0
ARC
  5
306
330
1F
100
AcDbEntity
  8
0
  6
Continuous
 62
     7
370
    15
100
AcDbCircle
 10
-1.9663445296
 20
6.4821692006
 30
0.0
 40
4.534791946595888
100
AcDbArc
 50
292.5677677292
 51
297.1483396452
  0
ARC
  5
307
330
1F
100
AcDbEntity
  8
0
  6
Continuous
 62
     7
370
    15
100
AcDbCircle
 10
3.8971081167
 20
7.2909764729
 30
0.0
 40
6.153094326968294
100
AcDbArc
 50
227.3411231478
 51
231.9287936306
  0
ARC
  5
308
330
1F
100
AcDbEntity
  8
0
  6
Continuous
 62
     7
370
    15
100
AcDbCircle
 10
-5.2446252249
 20
6.390594327
 30
0.0
 40
6.153094326970053
100
AcDbArc
 50
319.3212063694
 51
323.9088768522
  0
ARC
  5
309
330
1F
100
AcDbEntity
  8
0
  6
Continuous
 62
     7
370
    15
100
AcDbCircle
 10
0.6639532941
 20
6.7412309245
 30
0.0
 40
4.534791946596095
100
AcDbArc
 50
254.1016603548
 51
258.6822322708
  0
ARC
  5
30A
330
1F
100
AcDbEntity
  8
0
  6
Continuous
 62
     7
370
    15
100
AcDbCircle
 10
-1.9663445296
 20
6.4821692006
 30
0.0
 40
4.53479194659625
100
AcDbArc
 50
299.2392247868
 51
306.4654123749
  0
ARC
  5
30B
330
1F
100
AcDbEntity
  8
0
  6
Continuous
 62
     7
370
    15
100
AcDbCircle
 10
6.390594327
 20
5.2446252249
 30
0.0
 40
6.153094326968072
100
AcDbArc
 50
192.5603542124
 51
203.0526311728
  0
ARC
  5
30C
330
1F
100
AcDbEntity
  8
0
  6
Continuous
 62
     7
370
    15
100
AcDbCircle
 10
-5.2446252249
 20
6.390594327
 30
0.0
 40
6.153094326967978
100
AcDbArc
 50
325.6973688272
 51
336.1896457876
  0
ARC
  5
30D
330
1F
100
AcDbEntity
  8
0
  6
Continuous
 62
     7
370
    15
100
AcDbCircle
 10
3.1931702475
 20
5.9740013496
 30
0.0
 40
4.534791946596189
100
AcDbArc
 50
222.2845876252
 51
229.5107752132
  0
ARC
  5
30E
330
1F
100
AcDbEntity
  8
0
  6
Continuous
 62
     7
370
    15
100
AcDbCircle
 10
6.390594327
 20
5.2446252249
 30
0.0
 40
6.153094326966688
100
AcDbArc
 50
210.9333839541
 51
213.1181240533
  0
ARC
  5
30F
330
1F
100
AcDbEntity
  8
0
  6
Continuous
 62
     7
370
    15
100
AcDbCircle
 10
0.8103225231
 20
8.2273426457
 30
0.0
 40
6.15309432695566
100
AcDbArc
 50
270.6318759467
 51
272.8166160459
  0
ARC
  5
310
330
1F
100
AcDbEntity
  8
0
  6
Continuous
 62
     7
370
    15
100
AcDbCircle
 10
3.1931702475
 20
5.9740013496
 30
0.0
 40
4.534791946596504
100
AcDbArc
 50
239.3031603374
 51
244.4468396626
  0
ARC
  5
311
330
1F
100
AcDbEntity
  8
0
  6
Continuous
 62
     7
370
    15
100
AcDbCircle
 10
3.1931702475
 20
5.9740013496
 30
0.0
 40
4.53479194659512
100
AcDbArc
 50
247.5677677292
 51
252.1483396452
  0
ARC
  5
312
330
1F
100
AcDbEntity
  8
0
  6
Continuous
 62
     7
370
    15
100
AcDbCircle
 10
7.9111704818
 20
2.3998273291
 30
0.0
 40
6.153094326970339
100
AcDbArc
 50
182.3411231478
 51
186.9287936306
  0
ARC
  5
313
330
1F
100
AcDbEntity
  8
0
  6
Continuous
 62
     7
370
    15
100
AcDbCircle
 10
0.8103225231
 20
8.2273426457
 30
0.0
 40
6.153094326970354
100
AcDbArc
 50
274.3212063694
 51
278.9088768522
  0
ARC
  5
314
330
1F
100
AcDbEntity
  8
0
  6
Continuous
 62
     7
370
    15
100
AcDbCircle
 10
5.2362559769
 20
4.2972842236
 30
0.0
 40
4.534791946595616
100
AcDbArc
 50
209.1016603548
 51
213.6822322708
  0
ARC
  5
315
330
1F
100
AcDbEntity
  8
0
  6
Continuous
 62
     7
370
    15
100
AcDbCircle
 10
3.1931702475
 20
5.9740013496
 30
0.0
 40
4.534791946596658
100
AcDbArc
 50
254.2392247868
 51
261.4654123748
  0
ARC
  5
316
330
1F
100
AcDbEntity
  8
0
  6
Continuous
 62
     7
370
    15
100
AcDbCircle
 10
8.2273426457
 20
-0.8103225231
 30
0.0
 40
6.153094326967867
100
AcDbArc
 50
147.5603542124
 51
158.0526311728
  0
ARC
  5
317
330
1F
100
AcDbEntity
  8
0
  6
Continuous
 62
     7
370
    15
100
AcDbCircle
 10
0.8103225231
 20
8.2273426457
 30
0.0
 40
6.153094326967827
100
AcDbArc
 50
280.6973688272
 51
291.1896457876
  0
ARC
  5
318
330
1F
100
AcDbEntity
  8
0
  6
Continuous
 62
     7
370
    15
100
AcDbCircle
 10
6.4821692006
 20
1.9663445296
 30
0.0
 40
4.534791946597371
100
AcDbArc
 50
177.2845876252
 51
184.5107752132
  0
ARC
  5
319
330
1F
100
AcDbEntity
  8
0
  6
Continuous
 62
     7
370
    15
100
AcDbCircle
 10
7.9111704818
 20
2.3998273291
 30
0.0
 40
6.153094326959883
100
AcDbArc
 50
188.4333839541
 51
190.6181240533
  0
ARC
  5
31A
330
1F
100
AcDbEntity
  8
0
  6
Continuous
 62
     7
370
    15
100
AcDbCircle
 10
3.8971081167
 20
7.2909764729
 30
0.0
 40
6.153094326963968
100
AcDbArc
 50
248.1318759467
 51
250.3166160459
  0
ARC
  5
31B
330
1F
100
AcDbEntity
  8
0
  6
Continuous
 62
     7
370
    15
100
AcDbCircle
 10
5.2362559769
 20
4.2972842236
 30
0.0
 40
4.534791946596663
100
AcDbArc
 50
216.8031603374
 51
221.9468396626
  0
ARC
  5
31C
330
1F
100
AcDbEntity
  8
0
  6
Continuous
 62
     7
370
    15
100
AcDbCircle
 10
5.2362559769
 20
4.2972842236
 30
0.0
 40
4.534791946595995
100
AcDbArc
 50
225.0677677292
 51
229.6483396452
  0
ARC
  5
31D
330
1F
100
AcDbEntity
  8
0
  6
Continuous
 62
     7
370
    15
100
AcDbCircle
 10
8.2273426457
 20
-0.8103225231
 30
0.0
 40
6.153094326969518
100
AcDbArc
 50
159.8411231478
 51
164.4287936306
  0
ARC
  5
31E
330
1F
100
AcDbEntity
  8
0
  6
Continuous
 62
     7
370
    15
100
AcDbCircle
 10
3.8971081167
 20
7.2909764729
 30
0.0
 40
6.15309432696951
100
AcDbArc
 50
251.8212063694
 51
256.4088768522
  0
ARC
  5
31F
330
1F
100
AcDbEntity
  8
0
  6
Continuous
 62
     7
370
    15
100
AcDbCircle
 10
6.4821692006
 20
1.9663445296
 30
0.0
 40
4.534791946595657
100
AcDbArc
 50
186.6016603548
 51
191.1822322708
  0
ARC
  5
320
330
1F
100
AcDbEntity
  8
0
  6
Continuous
 62
     7
370
    15
100
AcDbCircle
 10
5.2362559769
 20
4.2972842236
 30
0.0
 40
4.534791946596484
100
AcDbArc
 50
231.7392247868
 51
238.9654123748
  0
ARC
  5
321
330
1F
100
AcDbEntity
  8
0
  6
Continuous
 62
     7
370
    15
100
AcDbCircle
 10
7.2909764729
 20
-3.8971081167
 30
0.0
 40
6.153094326967731
100
AcDbArc
 50
125.0603542124
 51
135.5526311728
  0
ARC
  5
322
330
1F
100
AcDbEntity
  8
0
  6
Continuous
 62
     7
370
    15
100
AcDbCircle
 10
3.8971081167
 20
7.2909764729
 30
0.0
 40
6.153094326968019
100
AcDbArc
 50
258.1973688272
 51
268.6896457876
  0
ARC
  5
323
330
1F
100
AcDbEntity
  8
0
  6
Continuous
 62
     7
370
    15
100
AcDbCircle
 10
6.7412309245
 20
-0.6639532941
 30
0.0
 40
4.534791946596125
100
AcDbArc
 50
154.7845876252
 51
162.0107752132
  0
ARC
  5
324
330
1F
100
AcDbEntity
  8
0
  6
Continuous
 62
     7
370
    15
100
AcDbCircle
 10
8.2273426457
 20
-0.8103225231
 30
0.0
 40
6.153094326966028
100
AcDbArc
 50
165.9333839541
 51
168.1181240533
  0
ARC
  5
325
330
1F
100
AcDbEntity
  8
0
  6
Continuous
 62
     7
370
    15
100
AcDbCircle
 10
6.390594327
 20
5.2446252249
 30
0.0
 40
6.153094326968729
100
AcDbArc
 50
225.6318759467
 51
227.8166160459
  0
ARC
  5
326
330
1F
100
AcDbEntity
  8
0
  6
Continuous
 62
     7
370
    15
100
AcDbCircle
 10
6.4821692006
 20
1.9663445296
 30
0.0
 40
4.534791946596813
100
AcDbArc
 50
194.3031603374
 51
199.4468396626
  0
ARC
  5
327
330
1F
100
AcDbEntity
  8
0
  6
Continuous
 62
     7
370
    15
100
AcDbCircle
 10
6.4821692006
 20
1.9663445296
 30
0.0
 40
4.534791946597126
100
AcDbArc
 50
202.5677677292
 51
207.1483396452
  0
ARC
  5
328
330
1F
100
AcDbEntity
  8
0
  6
Continuous
 62
     7
370
    15
100
AcDbCircle
 10
7.2909764729
 20
-3.8971081167
 30
0.0
 40
6.153094326969425
100
AcDbArc
 50
137.3411231478
 51
141.9287936306
  0
ARC
  5
329
330
1F
100
AcDbEntity
  8
0
  6
Continuous
 62
     7
370
    15
100
AcDbCircle
 10
6.390594327
 20
5.2446252249
 30
0.0
 40
6.153094326969955
100
AcDbArc
 50
229.3212063694
 51
233.9088768522
  0
ARC
  5
32A
330
1F
100
AcDbEntity
  8
0
  6
Continuous
 62
     7
370
    15
100
AcDbCircle
 10
6.7412309245
 20
-0.6639532941
 30
0.0
 40
4.534791946595505
100
AcDbArc
 50
164.1016603548
 51
168.6822322708
  0
ARC
  5
32B
330
1F
100
AcDbEntity
  8
0
  6
Continuous
 62
     7
370
    15
100
AcDbCircle
 10
6.4821692006
 20
1.9663445296
 30
0.0
 40
4.534791946596505
100
AcDbArc
 50
209.2392247868
 51
216.4654123748
  0
ARC
  5
32C
330
1F
100
AcDbEntity
  8
0
  6
Continuous
 62
     7
370
    15
100
AcDbCircle
 10
5.2446252249
 20
-6.390594327
 30
0.0
 40
6.15309432696786
100
AcDbArc
 50
102.5603542124
 51
113.0526311728
  0
ARC
  5
32D
330
1F
100
AcDbEntity
  8
0
  6
Continuous
 62
     7
370
    15
100
AcDbCircle
 10
6.390594327
 20
5.2446252249
 30
0.0
 40
6.153094326967834
100
AcDbArc
 50
235.6973688272
 51
246.1896457876
  0
ARC
  5
32E
330
1F
100
AcDbEntity
  8
0
  6
Continuous
 62
     7
370
    15
100
AcDbCircle
 10
5.9740013496
 20
-3.1931702475
 30
0.0
 40
4.534791946597211
100
AcDbArc
 50
132.2845876252
 51
139.5107752132
  0
ARC
  5
32F
330
1F
100
AcDbEntity
  8
0
  6
Continuous
 62
     7
370
    15
100
AcDbCircle
 10
7.2909764729
 20
-3.8971081167
 30
0.0
 40
6.153094326965338
100
AcDbArc
 50
143.4333839541
 51
145.6181240533
  0
ARC
  5
330
330
1F
100
AcDbEntity
  8
0
  6
Continuous
 62
     7
370
    15
100
AcDbCircle
 10
7.9111704818
 20
2.3998273291
 30
0.0
 40
6.153094326965903
100
AcDbArc
 50
203.1318759467
 51
205.3166160459
  0
ARC
  5
331
330
1F
100
AcDbEntity
  8
0
  6
Continuous
 62
     7
370
    15
100
AcDbCircle
 10
6.7412309245
 20
-0.6639532941
 30
0.0
 40
4.534791946597347
100
AcDbArc
 50
171.8031603374
 51
176.9468396626
  0
ARC
  5
332
330
1F
100
AcDbEntity
  8
0
  6
Continuous
 62
     7
370
    15
100
AcDbCircle
 10
6.7412309245
 20
-0.6639532941
 30
0.0
 40
4.534791946595534
100
AcDbArc
 50
180.0677677292
 51
184.6483396452
  0
ARC
  5
333
330
1F
100
AcDbEntity
  8
0
  6
Continuous
 62
     7
370
    15
100
AcDbCircle
 10
5.2446252249
 20
-6.390594327
 30
0.0
 40
6.153094326971039
100
AcDbArc
 50
114.8411231478
 51
119.4287936306
  0
ARC
  5
334
330
1F
100
AcDbEntity
  8
0
  6
Continuous
 62
     7
370
    15
100
AcDbCircle
 10
7.9111704818
 20
2.3998273291
 30
0.0
 40
6.153094326968945
100
AcDbArc
 50
206.8212063694
 51
211.4088768522
  0
ARC
  5
335
330
1F
100
AcDbEntity
  8
0
  6
Continuous
 62
     7
370
    15
100
AcDbCircle
 10
5.9740013496
 20
-3.1931702475
 30
0.0
 40
4.534791946595078
100
AcDbArc
 50
141.6016603548
 51
146.1822322708
  0
ARC
  5
336
330
1F
100
AcDbEntity
  8
0
  6
Continuous
 62
     7
370
    15
100
AcDbCircle
 10
6.7412309245
 20
-0.6639532941
 30
0.0
 40
4.534791946596369
100
AcDbArc
 50
186.7392247868
 51
193.9654123749
  0
ARC
  5
337
330
1F
100
AcDbEntity
  8
0
  6
Continuous
 62
     7
370
    15
100
AcDbCircle
 10
2.3998273291
 20
-7.9111704818
 30
0.0
 40
6.153094326967971
100
AcDbArc
 50
80.0603542124
 51
90.5526311728
  0
ARC
  5
338
330
1F
100
AcDbEntity
  8
0
  6
Continuous
 62
     7
370
    15
100
AcDbCircle
 10
7.9111704818
 20
2.3998273291
 30
0.0
 40
6.153094326967837
100
AcDbArc
 50
213.1973688272
 51
223.6896457876
  0
ARC
  5
339
330
1F
100
AcDbEntity
  8
0
  6
Continuous
 62
     7
370
    15
100
AcDbCircle
 10
4.2972842236
 20
-5.2362559769
 30
0.0
 40
4.534791946596869
100
AcDbArc
 50
109.7845876252
 51
117.0107752132
  0
ARC
  5
33A
330
1F
100
AcDbEntity
  8
0
  6
Continuous
 62
     7
370
    15
100
AcDbCircle
 10
5.2446252249
 20
-6.390594327
 30
0.0
 40
6.153094326962923
100
AcDbArc
 50
120.9333839541
 51
123.1181240533
  0
ARC
  5
33B
330
1F
100
AcDbEntity
  8
0
  6
Continuous
 62
     7
370
    15
100
AcDbCircle
 10
8.2273426457
 20
-0.8103225231
 30
0.0
 40
6.153094326963272
100
AcDbArc
 50
180.6318759467
 51
182.8166160459
  0
ARC
  5
33C
330
1F
100
AcDbEntity
  8
0
  6
Continuous
 62
     7
370
    15
100
AcDbCircle
 10
5.9740013496
 20
-3.1931702475
 30
0.0
 40
4.534791946596221
100
AcDbArc
 50
149.3031603374
 51
154.4468396626
  0
ARC
  5
33D
330
1F
100
AcDbEntity
  8
0
  6
Continuous
 62
     7
370
    15
100
AcDbCircle
 10
5.9740013496
 20
-3.1931702475
 30
0.0
 40
4.534791946596455
100
AcDbArc
 50
157.5677677292
 51
162.1483396452
  0
ARC
  5
33E
330
1F
100
AcDbEntity
  8
0
  6
Continuous
 62
     7
370
    15
100
AcDbCircle
 10
2.3998273291
 20
-7.9111704818
 30
0.0
 40
6.153094326970376
100
AcDbArc
 50
92.3411231478
 51
96.9287936306
  0
ARC
  5
33F
330
1F
100
AcDbEntity
  8
0
  6
Continuous
 62
     7
370
    15
100
AcDbCircle
 10
8.2273426457
 20
-0.8103225231
 30
0.0
 40
6.153094326970551
100
AcDbArc
 50
184.3212063694
 51
188.9088768522
  0
ARC
  5
340
330
1F
100
AcDbEntity
  8
0
  6
Continuous
 62
     7
370
    15
100
AcDbCircle
 10
4.2972842236
 20
-5.2362559769
 30
0.0
 40
4.53479194659906
100
AcDbArc
 50
119.1016603548
 51
123.6822322708
  0
ARC
  5
341
330
1F
100
AcDbEntity
  8
0
  6
Continuous
 62
     7
370
    15
100
AcDbCircle
 10
5.9740013496
 20
-3.1931702475
 30
0.0
 40
4.534791946596813
100
AcDbArc
 50
164.2392247868
 51
171.4654123748
  0
ARC
  5
342
330
1F
100
AcDbEntity
  8
0
  6
Continuous
 62
     7
370
    15
100
AcDbCircle
 10
-0.8103225231
 20
-8.2273426457
 30
0.0
 40
6.15309432696777
100
AcDbArc
 50
57.5603542124
 51
68.0526311728
  0
ARC
  5
343
330
1F
100
AcDbEntity
  8
0
  6
Continuous
 62
     7
370
    15
100
AcDbCircle
 10
8.2273426457
 20
-0.8103225231
 30
0.0
 40
6.153094326967826
100
AcDbArc
 50
190.6973688272
 51
201.1896457876
  0
ARC
  5
344
330
1F
100
AcDbEntity
  8
0
  6
Continuous
 62
     7
370
    15
100
AcDbCircle
 10
1.9663445296
 20
-6.4821692006
 30
0.0
 40
4.534791946597535
100
AcDbArc
 50
87.2845876252
 51
94.5107752132
  0
ARC
  5
345
330
1F
100
AcDbEntity
  8
0
  6
Continuous
 62
     7
370
    15
100
AcDbCircle
 10
2.3998273291
 20
-7.9111704818
 30
0.0
 40
6.153094326969698
100
AcDbArc
 50
98.4333839541
 51
100.6181240533
  0
ARC
  5
346
330
1F
100
AcDbEntity
  8
0
  6
Continuous
 62
     7
370
    15
100
AcDbCircle
 10
7.2909764729
 20
-3.8971081167
 30
0.0
 40
6.15309432696302
100
AcDbArc
 50
158.1318759467
 51
160.3166160459
  0
ARC
  5
347
330
1F
100
AcDbEntity
  8
0
  6
Continuous
 62
     7
370
    15
100
AcDbCircle
 10
4.2972842236
 20
-5.2362559769
 30
0.0
 40
4.53479194659606
100
AcDbArc
 50
126.8031603374
 51
131.9468396626
  0
ARC
  5
348
330
1F
100
AcDbEntity
  8
0
  6
Continuous
 62
     7
370
    15
100
AcDbCircle
 10
4.2972842236
 20
-5.2362559769
 30
0.0
 40
4.534791946595763
100
AcDbArc
 50
135.0677677292
 51
139.6483396452
  0
ARC
  5
349
330
1F
100
AcDbEntity
  8
0
  6
Continuous
 62
     7
370
    15
100
AcDbCircle
 10
-0.8103225231
 20
-8.2273426457
 30
0.0
 40
6.153094326969373
100
AcDbArc
 50
69.8411231478
 51
74.4287936306
  0
ARC
  5
34A
330
1F
100
AcDbEntity
  8
0
  6
Continuous
 62
     7
370
    15
100
AcDbCircle
 10
7.2909764729
 20
-3.8971081167
 30
0.0
 40
6.153094326969615
100
AcDbArc
 50
161.8212063694
 51
166.4088768522
  0
ARC
  5
34B
330
1F
100
AcDbEntity
  8
0
  6
Continuous
 62
     7
370
    15
100
AcDbCircle
 10
1.9663445296
 20
-6.4821692006
 30
0.0
 40
4.534791946595732
100
AcDbArc
 50
96.6016603548
 51
101.1822322708
  0
ARC
  5
34C
330
1F
100
AcDbEntity
  8
0
  6
Continuous
 62
     7
370
    15
100
AcDbCircle
 10
4.2972842236
 20
-5.2362559769
 30
0.0
 40
4.534791946597081
100
AcDbArc
 50
141.7392247868
 51
148.9654123748
  0
ARC
  5
34D
330
1F
100
AcDbEntity
  8
0
  6
Continuous
 62
     7
370
    15
100
AcDbCircle
 10
-3.8971081167
 20
-7.2909764729
 30
0.0
 40
6.153094326967971
100
AcDbArc
 50
35.0603542124
 51
45.5526311728
  0
ARC
  5
34E
330
1F
100
AcDbEntity
  8
0
  6
Continuous
 62
     7
370
    15
100
AcDbCircle
 10
7.2909764729
 20
-3.8971081167
 30
0.0
 40
6.153094326968063
100
AcDbArc
 50
168.1973688272
 51
178.6896457876
  0
ARC
  5
34F
330
1F
100
AcDbEntity
  8
0
  6
Continuous
 62
     7
370
    15
100
AcDbCircle
 10
-0.6639532941
 20
-6.7412309245
 30
0.0
 40
4.534791946595986
100
AcDbArc
 50
64.7845876252
 51
72.0107752132
  0
ARC
  5
350
330
1F
100
AcDbEntity
  8
0
  6
Continuous
 62
     7
370
    15
100
AcDbCircle
 10
-0.8103225231
 20
-8.2273426457
 30
0.0
 40
6.153094326971544
100
AcDbArc
 50
75.9333839541
 51
78.1181240533
  0
ARC
  5
351
330
1F
100
AcDbEntity
  8
0
  6
Continuous
 62
     7
370
    15
100
AcDbCircle
 10
5.2446252249
 20
-6.390594327
 30
0.0
 40
6.153094326963456
100
AcDbArc
 50
135.6318759467
 51
137.8166160459
  0
ARC
  5
352
330
1F
100
AcDbEntity
  8
0
  6
Continuous
 62
     7
370
    15
100
AcDbCircle
 10
1.9663445296
 20
-6.4821692006
 30
0.0
 40
4.53479194659694
100
AcDbArc
 50
104.3031603374
 51
109.4468396626
  0
ARC
  5
353
330
1F
100
AcDbEntity
  8
0
  6
Continuous
 62
     7
370
    15
100
AcDbCircle
 10
1.9663445296
 20
-6.4821692006
 30
0.0
 40
4.53479194659565
100
AcDbArc
 50
112.5677677292
 51
117.1483396452
  0
ARC
  5
354
330
1F
100
AcDbEntity
  8
0
  6
Continuous
 62
     7
370
    15
100
AcDbCircle
 10
-3.8971081167
 20
-7.2909764729
 30
0.0
 40
6.153094326969825
100
AcDbArc
 50
47.3411231478
 51
51.9287936306
  0
ARC
  5
355
330
1F
100
AcDbEntity
  8
0
  6
Continuous
 62
     7
370
    15
100
AcDbCircle
 10
5.2446252249
 20
-6.390594327
 30
0.0
 40
6.153094326969803
100
AcDbArc
 50
139.3212063694
 51
143.9088768522
  0
ARC
  5
356
330
1F
100
AcDbEntity
  8
0
  6
Continuous
 62
     7
370
    15
100
AcDbCircle
 10
-0.6639532941
 20
-6.7412309245
 30
0.0
 40
4.534791946595048
100
AcDbArc
 50
74.1016603548
 51
78.6822322708
  0
ARC
  5
357
330
1F
100
AcDbEntity
  8
0
  6
Continuous
 62
     7
370
    15
100
AcDbCircle
 10
1.9663445296
 20
-6.4821692006
 30
0.0
 40
4.5347919465967
100
AcDbArc
 50
119.2392247868
 51
126.4654123748
  0
ARC
  5
358
330
1F
100
AcDbEntity
  8
0
  6
Continuous
 62
     7
370
    15
100
AcDbCircle
 10
-6.390594327
 20
-5.2446252249
 30
0.0
 40
6.15309432696849
100
AcDbArc
 50
12.5603542124
 51
23.0526311728
  0
ARC
  5
359
330
1F
100
AcDbEntity
  8
0
  6
Continuous
 62
     7
370
    15
100
AcDbCircle
 10
5.2446252249
 20
-6.390594327
 30
0.0
 40
6.153094326968246
100
AcDbArc
 50
145.6973688272
 51
156.1896457876
  0
ARC
  5
35A
330
1F
100
AcDbEntity
  8
0
  6
Continuous
 62
     7
370
    15
100
AcDbCircle
 10
-3.1931702475
 20
-5.9740013496
 30
0.0
 40
4.534791946596505
100
AcDbArc
 50
42.2845876252
 51
49.5107752132
  0
ARC
  5
35B
330
1F
100
AcDbEntity
  8
0
  6
Continuous
 62
     7
370
    15
100
AcDbCircle
 10
-3.8971081167
 20
-7.2909764729
 30
0.0
 40
6.15309432696633
100
AcDbArc
 50
53.4333839541
 51
55.6181240533
  0
ARC
  5
35C
330
1F
100
AcDbEntity
  8
0
  6
Continuous
 62
     7
370
    15
100
AcDbCircle
 10
2.3998273291
 20
-7.9111704818
 30
0.0
 40
6.153094326966128
100
AcDbArc
 50
113.1318759467
 51
115.3166160459
  0
ARC
  5
35D
330
1F
100
AcDbEntity
  8
0
  6
Continuous
 62
     7
370
    15
100
AcDbCircle
 10
-0.6639532941
 20
-6.7412309245
 30
0.0
 40
4.534791946595916
100
AcDbArc
 50
81.8031603374
 51
86.9468396626
  0
ARC
  5
35E
330
1F
100
AcDbEntity
  8
0
  6
Continuous
 62
     7
370
    15
100
AcDbCircle
 10
-0.6639532941
 20
-6.7412309245
 30
0.0
 40
4.534791946596076
100
AcDbArc
 50
90.0677677292
 51
94.6483396452
  0
ARC
  5
35F
330
1F
100
AcDbEntity
  8
0
  6
Continuous
 62
     7
370
    15
100
AcDbCircle
 10
-6.390594327
 20
-5.2446252249
 30
0.0
 40
6.153094326970529
100
AcDbArc
 50
24.8411231478
 51
29.4287936306
  0
ARC
  5
360
330
1F
100
AcDbEntity
  8
0
  6
Continuous
 62
     7
370
    15
100
AcDbCircle
 10
2.3998273291
 20
-7.9111704818
 30
0.0
 40
6.153094326969867
100
AcDbArc
 50
116.8212063694
 51
121.4088768522
  0
ARC
  5
361
330
1F
100
AcDbEntity
  8
0
  6
Continuous
 62
     7
370
    15
100
AcDbCircle
 10
-3.1931702475
 20
-5.9740013496
 30
0.0
 40
4.534791946595572
100
AcDbArc
 50
51.6016603548
 51
56.1822322708
  0
ARC
  5
362
330
1F
100
AcDbEntity
  8
0
  6
Continuous
 62
     7
370
    15
100
AcDbCircle
 10
-0.6639532941
 20
-6.7412309245
 30
0.0
 40
4.534791946596355
100
AcDbArc
 50
96.7392247868
 51
103.9654123748
  0
ARC
  5
363
330
1F
100
AcDbEntity
  8
0
  6
Continuous
 62
     7
370
    15
100
AcDbCircle
 10
-7.9111704818
 20
-2.3998273291
 30
0.0
 40
6.153094326967579
100
AcDbArc
 50
350.0603542124
 51
0.5526311728
  0
ARC
  5
364
330
1F
100
AcDbEntity
  8
0
  6
Continuous
 62
     7
370
    15
100
AcDbCircle
 10
2.3998273291
 20
-7.9111704818
 30
0.0
 40
6.153094326968058
100
AcDbArc
 50
123.1973688272
 51
133.6896457876
  0
ARC
  5
365
330
1F
100
AcDbEntity
  8
0
  6
Continuous
 62
     7
370
    15
100
AcDbCircle
 10
-5.2362559769
 20
-4.2972842236
 30
0.0
 40
4.53479194659749
100
AcDbArc
 50
19.7845876252
 51
27.0107752132
  0
ARC
  5
366
330
1F
100
AcDbEntity
  8
0
  6
Continuous
 62
     7
370
    15
100
AcDbCircle
 10
-3.1931702475
 20
-5.9740013496
 30
0.0
 40
4.534791946595913
100
AcDbArc
 50
67.5677677292
 51
72.1483396452
  0
ARC
  5
367
330
1F
100
AcDbEntity
  8
0
  6
Continuous
 62
     7
370
    15
100
AcDbCircle
 10
-7.9111704818
 20
-2.3998273291
 30
0.0
 40
6.153094326972234
100
AcDbArc
 50
2.3411231478
 51
6.9287936306
  0
ARC
  5
368
330
1F
100
AcDbEntity
  8
0
  6
Continuous
 62
     7
370
    15
100
AcDbCircle
 10
-0.8103225231
 20
-8.2273426457
 30
0.0
 40
6.153094326970267
100
AcDbArc
 50
94.3212063694
 51
98.9088768522
  0
ARC
  5
369
330
1F
100
AcDbEntity
  8
0
  6
Continuous
 62
     7
370
    15
100
AcDbCircle
 10
-5.2362559769
 20
-4.2972842236
 30
0.0
 40
4.534791946595911
100
AcDbArc
 50
29.1016603548
 51
33.6822322708
  0
ARC
  5
36A
330
1F
100
AcDbEntity
  8
0
  6
Continuous
 62
     7
370
    15
100
AcDbCircle
 10
-3.1931702475
 20
-5.9740013496
 30
0.0
 40
4.534791946596998
100
AcDbArc
 50
59.3031603374
 51
64.4468396626
  0
ARC
  5
36B
330
1F
100
AcDbEntity
  8
0
  6
Continuous
 62
     7
370
    15
100
AcDbCircle
 10
-6.390594327
 20
-5.2446252249
 30
0.0
 40
6.153094326969057
100
AcDbArc
 50
30.9333839541
 51
33.1181240533
  0
ARC
  5
36C
330
1F
100
AcDbEntity
  8
0
  6
Continuous
 62
     7
370
    15
100
AcDbCircle
 10
-0.8103225231
 20
-8.2273426457
 30
0.0
 40
6.153094326961259
100
AcDbArc
 50
90.6318759467
 51
92.8166160459
  0
ARC
  5
36D
330
1F
100
AcDbEntity
  8
0
  6
Continuous
 62
     7
370
    15
100
AcDbCircle
 10
-7.9111704818
 20
-2.3998273291
 30
0.0
 40
6.15309432696406
100
AcDbArc
 50
8.4333839541
 51
10.6181240533
  0
ARC
  5
36E
330
1F
100
AcDbEntity
  8
0
  6
Continuous
 62
     7
370
    15
100
AcDbCircle
 10
-3.8971081167
 20
-7.2909764729
 30
0.0
 40
6.153094326960895
100
AcDbArc
 50
68.1318759467
 51
70.3166160459
  0
ARC
  5
36F
330
1F
100
AcDbEntity
  8
0
  6
Continuous
 62
     7
370
    15
100
AcDbCircle
 10
-5.2362559769
 20
-4.2972842236
 30
0.0
 40
4.534791946596277
100
AcDbArc
 50
36.8031603374
 51
41.9468396626
  0
ARC
  5
370
330
1F
100
AcDbEntity
  8
0
  6
Continuous
 62
     7
370
    15
100
AcDbCircle
 10
0.6639532941
 20
6.7412309245
 30
0.0
 40
4.53479194659646
100
AcDbArc
 50
276.7392247868
 51
283.9654123748
  0
ARC
  5
371
330
1F
100
AcDbEntity
  8
0
  6
Continuous
 62
     7
370
    15
100
AcDbCircle
 10
7.9111704818
 20
2.3998273291
 30
0.0
 40
6.153094326968024
100
AcDbArc
 50
170.0603542124
 51
180.5526311728
  0
ARC
  5
372
330
1F
100
AcDbEntity
  8
0
  6
Continuous
 62
     7
370
    15
100
AcDbCircle
 10
-2.3998273291
 20
7.9111704818
 30
0.0
 40
6.153094326967853
100
AcDbArc
 50
303.1973688272
 51
313.6896457876
  0
ARC
  5
373
330
1F
100
AcDbEntity
  8
0
  6
Continuous
 62
     7
370
    15
100
AcDbCircle
 10
5.2362559769
 20
4.2972842236
 30
0.0
 40
4.534791946597297
100
AcDbArc
 50
199.7845876252
 51
207.0107752132
  0
ARC
  5
374
330
1F
100
AcDbEntity
  8
0
  6
Continuous
 62
     7
370
    15
100
AcDbCircle
 10
0.6639532941
 20
6.7412309245
 30
0.0
 40
4.534791946595843
100
AcDbArc
 50
270.0677677292
 51
274.6483396452
  0
ARC
  5
375
330
1F
100
AcDbEntity
  8
0
  6
Continuous
 62
     7
370
    15
100
AcDbCircle
 10
6.390594327
 20
5.2446252249
 30
0.0
 40
6.153094326968742
100
AcDbArc
 50
204.8411231478
 51
209.4287936306
  0
ARC
  5
376
330
1F
100
AcDbEntity
  8
0
  6
Continuous
 62
     7
370
    15
100
AcDbCircle
 10
-2.3998273291
 20
7.9111704818
 30
0.0
 40
6.153094326968703
100
AcDbArc
 50
296.8212063694
 51
301.4088768522
  0
ARC
  5
377
330
1F
100
AcDbEntity
  8
0
  6
Continuous
 62
     7
370
    15
100
AcDbCircle
 10
3.1931702475
 20
5.9740013496
 30
0.0
 40
4.534791946596108
100
AcDbArc
 50
231.6016603548
 51
236.1822322708
  0
ARC
  5
378
330
1F
100
AcDbEntity
  8
0
  6
Continuous
 62
     7
370
    15
100
AcDbCircle
 10
3.8971081167
 20
7.2909764729
 30
0.0
 40
6.153094326964569
100
AcDbArc
 50
233.4333839541
 51
235.6181240533
  0
ARC
  5
379
330
1F
100
AcDbEntity
  8
0
  6
Continuous
 62
     7
370
    15
100
AcDbCircle
 10
-2.3998273291
 20
7.9111704818
 30
0.0
 40
6.153094326968261
100
AcDbArc
 50
293.1318759467
 51
295.3166160459
  0
ARC
  5
37A
330
1F
100
AcDbEntity
  8
0
  6
Continuous
 62
     7
370
    15
100
AcDbCircle
 10
0.6639532941
 20
6.7412309245
 30
0.0
 40
4.534791946596452
100
AcDbArc
 50
261.8031603374
 51
266.9468396626
  0
ARC
  5
37B
330
1F
100
AcDbEntity
  8
0
  6
Continuous
 62
     7
370
    15
100
AcDbCircle
 10
-7.9111704818
 20
-2.3998273291
 30
0.0
 40
6.153094326968276
100
AcDbArc
 50
33.1973688272
 51
43.6896457876
  0
ARC
  5
37C
330
1F
100
AcDbEntity
  8
0
  6
Continuous
 62
     7
370
    15
100
AcDbCircle
 10
-4.2972842236
 20
5.2362559769
 30
0.0
 40
4.534791946597399
100
AcDbArc
 50
289.7845876252
 51
297.0107752132
  0
ARC
  5
37D
330
1F
100
AcDbEntity
  8
0
  6
Continuous
 62
     7
370
    15
100
AcDbCircle
 10
-6.7412309245
 20
0.6639532941
 30
0.0
 40
4.534791946596757
100
AcDbArc
 50
6.7392247868
 51
13.9654123748
  0
ARC
  5
37E
330
1F
100
AcDbEntity
  8
0
  6
Continuous
 62
     7
370
    15
100
AcDbCircle
 10
-2.3998273291
 20
7.9111704818
 30
0.0
 40
6.15309432696825
100
AcDbArc
 50
260.0603542124
 51
270.5526311728
  0
ARC
  5
37F
330
1F
100
AcDbEntity
  8
0
  6
Continuous
 62
     7
370
    15
100
AcDbCircle
 10
-5.2446252249
 20
6.390594327
 30
0.0
 40
6.153094326963644
100
AcDbArc
 50
300.9333839541
 51
303.1181240533
  0
ARC
  5
380
330
1F
100
AcDbEntity
  8
0
  6
Continuous
 62
     7
370
    15
100
AcDbCircle
 10
-8.2273426457
 20
0.8103225231
 30
0.0
 40
6.153094326971472
100
AcDbArc
 50
0.6318759467
 51
2.8166160459
  0
ARC
  5
381
330
1F
100
AcDbEntity
  8
0
  6
Continuous
 62
     7
370
    15
100
AcDbCircle
 10
-5.9740013496
 20
3.1931702475
 30
0.0
 40
4.534791946596051
100
AcDbArc
 50
329.3031603374
 51
334.4468396626
  0
ARC
  5
382
330
1F
100
AcDbEntity
  8
0
  6
Continuous
 62
     7
370
    15
100
AcDbCircle
 10
-7.9111704818
 20
-2.3998273291
 30
0.0
 40
6.153094326962615
100
AcDbArc
 50
23.1318759467
 51
25.3166160459
  0
ARC
  5
383
330
1F
100
AcDbEntity
  8
0
  6
Continuous
 62
     7
370
    15
100
AcDbCircle
 10
-6.7412309245
 20
0.6639532941
 30
0.0
 40
4.534791946597261
100
AcDbArc
 50
351.8031603374
 51
356.9468396626
  0
ARC
  5
384
330
1F
100
AcDbEntity
  8
0
  6
Continuous
 62
     7
370
    15
100
AcDbCircle
 10
-7.2909764729
 20
3.8971081167
 30
0.0
 40
6.153094326962458
100
AcDbArc
 50
323.4333839541
 51
325.6181240533
  0
ARC
  5
385
330
1F
100
AcDbEntity
  8
0
  6
Continuous
 62
     7
370
    15
100
AcDbCircle
 10
-6.4821692006
 20
-1.9663445296
 30
0.0
 40
4.534791946597338
100
AcDbArc
 50
14.3031603374
 51
19.4468396626
  0
ARC
  5
386
330
1F
100
AcDbEntity
  8
0
  6
Continuous
 62
     7
370
    15
100
AcDbCircle
 10
-8.2273426457
 20
0.8103225231
 30
0.0
 40
6.153094326967627
100
AcDbArc
 50
345.9333839541
 51
348.1181240533
  0
ARC
  5
387
330
1F
100
AcDbEntity
  8
0
  6
Continuous
 62
     7
370
    15
100
AcDbCircle
 10
-6.390594327
 20
-5.2446252249
 30
0.0
 40
6.153094326961401
100
AcDbArc
 50
45.6318759467
 51
47.8166160459
  0
ARC
  5
388
330
1F
100
AcDbEntity
  8
0
  6
Continuous
 62
     7
370
    15
100
AcDbCircle
 10
-6.4821692006
 20
-1.9663445296
 30
0.0
 40
4.534791946596402
100
AcDbArc
 50
357.2845876252
 51
4.5107752132
  0
ARC
  5
389
330
1F
100
AcDbEntity
  8
0
  6
Continuous
 62
     7
370
    15
100
AcDbCircle
 10
-3.1931702475
 20
-5.9740013496
 30
0.0
 40
4.534791946596891
100
AcDbArc
 50
74.2392247868
 51
81.4654123748
  0
ARC
  5
38A
330
1F
100
AcDbEntity
  8
0
  6
Continuous
 62
     7
370
    15
100
AcDbCircle
 10
-8.2273426457
 20
0.8103225231
 30
0.0
 40
6.153094326968255
100
AcDbArc
 50
327.5603542124
 51
338.0526311728
  0
ARC
  5
38B
330
1F
100
AcDbEntity
  8
0
  6
Continuous
 62
     7
370
    15
100
AcDbCircle
 10
-0.8103225231
 20
-8.2273426457
 30
0.0
 40
6.153094326968172
100
AcDbArc
 50
100.6973688272
 51
111.1896457876
  0
ARC
  5
38C
330
1F
100
AcDbEntity
  8
0
  6
Continuous
 62
     7
370
    15
100
AcDbCircle
 10
0.0
 20
0.0
 30
0.0
 40
5.249999999999905
100
AcDbArc
 50
225.0896702416
 51
236.03213109
  0
ARC
  5
38D
330
1F
100
AcDbEntity
  8
0
  6
Continuous
 62
     7
370
    15
100
AcDbCircle
 10
-2.7936394842
 20
-4.1467551691
 30
0.0
 40
0.2500000000000015
100
AcDbArc
 50
236.03213109
 51
329.4112767224
  0
ARC
  5
38E
330
1F
100
AcDbEntity
  8
0
  6
Continuous
 62
     7
370
    15
100
AcDbCircle
 10
-6.4821692006
 20
-1.9663445296
 30
0.0
 40
4.534791946596975
100
AcDbArc
 50
329.4112767224
 51
354.5382325714
  0
ARC
  5
38F
330
1F
100
AcDbEntity
  8
0
  6
Continuous
 62
     7
370
    15
100
AcDbCircle
 10
-0.6639532941
 20
-6.7412309245
 30
0.0
 40
4.534791946596893
100
AcDbArc
 50
106.7117674286
 51
132.8065334332
  0
ARC
  5
390
330
1F
100
AcDbEntity
  8
0
  6
Continuous
 62
     7
370
    15
100
AcDbCircle
 10
-3.5299963229
 20
-3.5410628292
 30
0.0
 40
0.2500000000000017
100
AcDbArc
 50
149.5244060345
 51
225.0896702416
  0
ARC
  5
391
330
1F
100
AcDbEntity
  8
0
  6
Continuous
 62
     7
370
    15
100
AcDbCircle
 10
-0.9940918394
 20
-4.9001817737
 30
0.0
 40
0.2499999999999987
100
AcDbArc
 50
258.53213109
 51
351.9112767224
  0
ARC
  5
392
330
1F
100
AcDbEntity
  8
0
  6
Continuous
 62
     7
370
    15
100
AcDbCircle
 10
-5.2362559769
 20
-4.2972842236
 30
0.0
 40
4.534791946596946
100
AcDbArc
 50
351.9112767224
 51
17.0382325714
  0
ARC
  5
393
330
1F
100
AcDbEntity
  8
0
  6
Continuous
 62
     7
370
    15
100
AcDbCircle
 10
1.9663445296
 20
-6.4821692006
 30
0.0
 40
4.534791946596912
100
AcDbArc
 50
129.2117674286
 51
154.3387232776
  0
ARC
  5
394
330
1F
100
AcDbEntity
  8
0
  6
Continuous
 62
     7
370
    15
100
AcDbCircle
 10
-1.8958379735
 20
-4.6266400744
 30
0.0
 40
0.2500000000000017
100
AcDbArc
 50
154.3387232776
 51
247.71786891
  0
ARC
  5
395
330
1F
100
AcDbEntity
  8
0
  6
Continuous
 62
     7
370
    15
100
AcDbCircle
 10
0.0
 20
0.0
 30
0.0
 40
5.249999999999532
100
AcDbArc
 50
247.71786891
 51
258.53213109
  0
ARC
  5
396
330
1F
100
AcDbEntity
  8
0
  6
Continuous
 62
     7
370
    15
100
AcDbCircle
 10
0.9567972765
 20
-4.9076001234
 30
0.0
 40
0.2500000000000024
100
AcDbArc
 50
281.03213109
 51
14.4112767224
  0
ARC
  5
397
330
1F
100
AcDbEntity
  8
0
  6
Continuous
 62
     7
370
    15
100
AcDbCircle
 10
-3.1931702475
 20
-5.9740013496
 30
0.0
 40
4.534791946596934
100
AcDbArc
 50
14.4112767224
 51
39.5382325714
  0
ARC
  5
398
330
1F
100
AcDbEntity
  8
0
  6
Continuous
 62
     7
370
    15
100
AcDbCircle
 10
4.2972842236
 20
-5.2362559769
 30
0.0
 40
4.534791946596943
100
AcDbArc
 50
151.7117674286
 51
176.8387232776
  0
ARC
  5
399
330
1F
100
AcDbEntity
  8
0
  6
Continuous
 62
     7
370
    15
100
AcDbCircle
 10
0.0190126033
 20
-4.999963852
 30
0.0
 40
0.250000000000001
100
AcDbArc
 50
176.8387232776
 51
270.21786891
  0
ARC
  5
39A
330
1F
100
AcDbEntity
  8
0
  6
Continuous
 62
     7
370
    15
100
AcDbCircle
 10
0.0
 20
0.0
 30
0.0
 40
5.25000000000015
100
AcDbArc
 50
270.21786891
 51
281.03213109
  0
ARC
  5
39B
330
1F
100
AcDbEntity
  8
0
  6
Continuous
 62
     7
370
    15
100
AcDbCircle
 10
2.7620226805
 20
-4.1678808419
 30
0.0
 40
0.2499999999999996
100
AcDbArc
 50
303.53213109
 51
36.9112767224
  0
ARC
  5
39C
330
1F
100
AcDbEntity
  8
0
  6
Continuous
 62
     7
370
    15
100
AcDbCircle
 10
-0.6639532941
 20
-6.7412309245
 30
0.0
 40
4.53479194659695
100
AcDbArc
 50
36.9112767224
 51
62.0382325714
  0
ARC
  5
39D
330
1F
100
AcDbEntity
  8
0
  6
Continuous
 62
     7
370
    15
100
AcDbCircle
 10
5.9740013496
 20
-3.1931702475
 30
0.0
 40
4.534791946596963
100
AcDbArc
 50
174.2117674286
 51
199.3387232776
  0
ARC
  5
39E
330
1F
100
AcDbEntity
  8
0
  6
Continuous
 62
     7
370
    15
100
AcDbCircle
 10
1.9309686836
 20
-4.6120884578
 30
0.0
 40
0.2500000000000001
100
AcDbArc
 50
199.3387232776
 51
292.71786891
  0
ARC
  5
39F
330
1F
100
AcDbEntity
  8
0
  6
Continuous
 62
     7
370
    15
100
AcDbCircle
 10
0.0
 20
0.0
 30
0.0
 40
5.249999999999817
100
AcDbArc
 50
292.71786891
 51
303.53213109
  0
ARC
  5
3A0
330
1F
100
AcDbEntity
  8
0
  6
Continuous
 62
     7
370
    15
100
AcDbCircle
 10
4.1467551691
 20
-2.7936394842
 30
0.0
 40
0.2499999999999986
100
AcDbArc
 50
326.03213109
 51
59.4112767224
  0
ARC
  5
3A1
330
1F
100
AcDbEntity
  8
0
  6
Continuous
 62
     7
370
    15
100
AcDbCircle
 10
1.9663445296
 20
-6.4821692006
 30
0.0
 40
4.534791946596964
100
AcDbArc
 50
59.4112767224
 51
84.5382325714
  0
ARC
  5
3A2
330
1F
100
AcDbEntity
  8
0
  6
Continuous
 62
     7
370
    15
100
AcDbCircle
 10
6.7412309245
 20
-0.6639532941
 30
0.0
 40
4.534791946596977
100
AcDbArc
 50
196.7117674287
 51
221.8387232776
  0
ARC
  5
3A3
330
1F
100
AcDbEntity
  8
0
  6
Continuous
 62
     7
370
    15
100
AcDbCircle
 10
3.5489522861
 20
-3.5220644047
 30
0.0
 40
0.2499999999999998
100
AcDbArc
 50
221.8387232776
 51
315.21786891
  0
ARC
  5
3A4
330
1F
100
AcDbEntity
  8
0
  6
Continuous
 62
     7
370
    15
100
AcDbCircle
 10
0.0
 20
0.0
 30
0.0
 40
5.249999999999937
100
AcDbArc
 50
315.21786891
 51
326.03213109
  0
ARC
  5
3A5
330
1F
100
AcDbEntity
  8
0
  6
Continuous
 62
     7
370
    15
100
AcDbCircle
 10
4.9001817737
 20
-0.9940918394
 30
0.0
 40
0.250000000000001
100
AcDbArc
 50
348.53213109
 51
81.9112767224
  0
ARC
  5
3A6
330
1F
100
AcDbEntity
  8
0
  6
Continuous
 62
     7
370
    15
100
AcDbCircle
 10
4.2972842236
 20
-5.2362559769
 30
0.0
 40
4.534791946596956
100
AcDbArc
 50
81.9112767224
 51
107.0382325714
  0
ARC
  5
3A7
330
1F
100
AcDbEntity
  8
0
  6
Continuous
 62
     7
370
    15
100
AcDbCircle
 10
6.4821692006
 20
1.9663445296
 30
0.0
 40
4.534791946596942
100
AcDbArc
 50
219.2117674286
 51
244.3387232776
  0
ARC
  5
3A8
330
1F
100
AcDbEntity
  8
0
  6
Continuous
 62
     7
370
    15
100
AcDbCircle
 10
4.6266400744
 20
-1.8958379735
 30
0.0
 40
0.2500000000000003
100
AcDbArc
 50
244.3387232776
 51
337.71786891
  0
ARC
  5
3A9
330
1F
100
AcDbEntity
  8
0
  6
Continuous
 62
     7
370
    15
100
AcDbCircle
 10
0.0
 20
0.0
 30
0.0
 40
5.249999999999731
100
AcDbArc
 50
337.71786891
 51
348.53213109
  0
ARC
  5
3AA
330
1F
100
AcDbEntity
  8
0
  6
Continuous
 62
     7
370
    15
100
AcDbCircle
 10
4.9076001234
 20
0.9567972765
 30
0.0
 40
0.2499999999999981
100
AcDbArc
 50
11.03213109
 51
104.4112767224
  0
ARC
  5
3AB
330
1F
100
AcDbEntity
  8
0
  6
Continuous
 62
     7
370
    15
100
AcDbCircle
 10
5.9740013496
 20
-3.1931702475
 30
0.0
 40
4.534791946596944
100
AcDbArc
 50
104.4112767224
 51
129.5382325714
  0
ARC
  5
3AC
330
1F
100
AcDbEntity
  8
0
  6
Continuous
 62
     7
370
    15
100
AcDbCircle
 10
5.2362559769
 20
4.2972842236
 30
0.0
 40
4.534791946596973
100
AcDbArc
 50
241.7117674286
 51
266.8387232776
  0
ARC
  5
3AD
330
1F
100
AcDbEntity
  8
0
  6
Continuous
 62
     7
370
    15
100
AcDbCircle
 10
4.999963852
 20
0.0190126033
 30
0.0
 40
0.2500000000000011
100
AcDbArc
 50
266.8387232776
 51
0.21786891
  0
ARC
  5
3AE
330
1F
100
AcDbEntity
  8
0
  6
Continuous
 62
     7
370
    15
100
AcDbCircle
 10
0.0
 20
0.0
 30
0.0
 40
5.249999999999766
100
AcDbArc
 50
0.21786891
 51
11.03213109
  0
ARC
  5
3AF
330
1F
100
AcDbEntity
  8
0
  6
Continuous
 62
     7
370
    15
100
AcDbCircle
 10
4.1678808419
 20
2.7620226805
 30
0.0
 40
0.2499999999999987
100
AcDbArc
 50
33.53213109
 51
126.9112767224
  0
ARC
  5
3B0
330
1F
100
AcDbEntity
  8
0
  6
Continuous
 62
     7
370
    15
100
AcDbCircle
 10
6.7412309245
 20
-0.6639532941
 30
0.0
 40
4.534791946596884
100
AcDbArc
 50
126.9112767224
 51
152.0382325714
  0
ARC
  5
3B1
330
1F
100
AcDbEntity
  8
0
  6
Continuous
 62
     7
370
    15
100
AcDbCircle
 10
3.1931702475
 20
5.9740013496
 30
0.0
 40
4.534791946596919
100
AcDbArc
 50
264.2117674286
 51
289.3387232776
  0
ARC
  5
3B2
330
1F
100
AcDbEntity
  8
0
  6
Continuous
 62
     7
370
    15
100
AcDbCircle
 10
4.6120884578
 20
1.9309686836
 30
0.0
 40
0.2500000000000004
100
AcDbArc
 50
289.3387232776
 51
22.71786891
  0
ARC
  5
3B3
330
1F
100
AcDbEntity
  8
0
  6
Continuous
 62
     7
370
    15
100
AcDbCircle
 10
0.0
 20
0.0
 30
0.0
 40
5.250000000000179
100
AcDbArc
 50
22.71786891
 51
33.53213109
  0
ARC
  5
3B4
330
1F
100
AcDbEntity
  8
0
  6
Continuous
 62
     7
370
    15
100
AcDbCircle
 10
2.7936394842
 20
4.1467551691
 30
0.0
 40
0.2499999999999982
100
AcDbArc
 50
56.03213109
 51
149.4112767224
  0
ARC
  5
3B5
330
1F
100
AcDbEntity
  8
0
  6
Continuous
 62
     7
370
    15
100
AcDbCircle
 10
6.4821692006
 20
1.9663445296
 30
0.0
 40
4.534791946596916
100
AcDbArc
 50
149.4112767224
 51
174.5382325714
  0
ARC
  5
3B6
330
1F
100
AcDbEntity
  8
0
  6
Continuous
 62
     7
370
    15
100
AcDbCircle
 10
0.6639532941
 20
6.7412309245
 30
0.0
 40
4.534791946596931
100
AcDbArc
 50
286.7117674286
 51
311.8387232776
  0
ARC
  5
3B7
330
1F
100
AcDbEntity
  8
0
  6
Continuous
 62
     7
370
    15
100
AcDbCircle
 10
3.5220644047
 20
3.5489522861
 30
0.0
 40
0.250000000000001
100
AcDbArc
 50
311.8387232776
 51
45.21786891
  0
ARC
  5
3B8
330
1F
100
AcDbEntity
  8
0
  6
Continuous
 62
     7
370
    15
100
AcDbCircle
 10
0.0
 20
0.0
 30
0.0
 40
5.249999999999853
100
AcDbArc
 50
45.21786891
 51
56.03213109
  0
ARC
  5
3B9
330
1F
100
AcDbEntity
  8
0
  6
Continuous
 62
     7
370
    15
100
AcDbCircle
 10
0.9940918394
 20
4.9001817737
 30
0.0
 40
0.2499999999999992
100
AcDbArc
 50
78.53213109
 51
171.9112767224
  0
ARC
  5
3BA
330
1F
100
AcDbEntity
  8
0
  6
Continuous
 62
     7
370
    15
100
AcDbCircle
 10
5.2362559769
 20
4.2972842236
 30
0.0
 40
4.534791946596934
100
AcDbArc
 50
171.9112767224
 51
197.0382325714
  0
ARC
  5
3BB
330
1F
100
AcDbEntity
  8
0
  6
Continuous
 62
     7
370
    15
100
AcDbCircle
 10
-1.9663445296
 20
6.4821692006
 30
0.0
 40
4.534791946596929
100
AcDbArc
 50
309.2117674286
 51
334.3387232776
  0
ARC
  5
3BC
330
1F
100
AcDbEntity
  8
0
  6
Continuous
 62
     7
370
    15
100
AcDbCircle
 10
1.8958379735
 20
4.6266400744
 30
0.0
 40
0.2500000000000007
100
AcDbArc
 50
334.3387232776
 51
67.71786891
  0
ARC
  5
3BD
330
1F
100
AcDbEntity
  8
0
  6
Continuous
 62
     7
370
    15
100
AcDbCircle
 10
0.0
 20
0.0
 30
0.0
 40
5.24999999999988
100
AcDbArc
 50
67.71786891
 51
78.53213109
  0
ARC
  5
3BE
330
1F
100
AcDbEntity
  8
0
  6
Continuous
 62
     7
370
    15
100
AcDbCircle
 10
-0.9567972765
 20
4.9076001234
 30
0.0
 40
0.2499999999999986
100
AcDbArc
 50
101.03213109
 51
194.4112767224
  0
ARC
  5
3BF
330
1F
100
AcDbEntity
  8
0
  6
Continuous
 62
     7
370
    15
100
AcDbCircle
 10
3.1931702475
 20
5.9740013496
 30
0.0
 40
4.534791946596926
100
AcDbArc
 50
194.4112767224
 51
219.5382325714
  0
ARC
  5
3C0
330
1F
100
AcDbEntity
  8
0
  6
Continuous
 62
     7
370
    15
100
AcDbCircle
 10
-4.2972842236
 20
5.2362559769
 30
0.0
 40
4.534791946596952
100
AcDbArc
 50
331.7117674286
 51
356.8387232776
  0
ARC
  5
3C1
330
1F
100
AcDbEntity
  8
0
  6
Continuous
 62
     7
370
    15
100
AcDbCircle
 10
-0.0190126033
 20
4.999963852
 30
0.0
 40
0.2499999999999995
100
AcDbArc
 50
356.8387232776
 51
90.21786891
  0
ARC
  5
3C2
330
1F
100
AcDbEntity
  8
0
  6
Continuous
 62
     7
370
    15
100
AcDbCircle
 10
0.0
 20
0.0
 30
0.0
 40
5.249999999999794
100
AcDbArc
 50
90.21786891
 51
101.03213109
  0
ARC
  5
3C3
330
1F
100
AcDbEntity
  8
0
  6
Continuous
 62
     7
370
    15
100
AcDbCircle
 10
-6.4821692006
 20
-1.9663445296
 30
0.0
 40
4.534791946596746
100
AcDbArc
 50
6.6016603548
 51
11.1822322708
  0
ARC
  5
3C4
330
1F
100
AcDbEntity
  8
0
  6
Continuous
 62
     7
370
    15
100
AcDbCircle
 10
-5.2362559769
 20
-4.2972842236
 30
0.0
 40
4.534791946596747
100
AcDbArc
 50
45.0677677292
 51
49.6483396452
  0
ARC
  5
3C5
330
1F
100
AcDbEntity
  8
0
  6
Continuous
 62
     7
370
    15
100
AcDbCircle
 10
-8.2273426457
 20
0.8103225231
 30
0.0
 40
6.153094326968969
100
AcDbArc
 50
339.8411231478
 51
344.4287936306
  0
ARC
  5
3C6
330
1F
100
AcDbEntity
  8
0
  6
Continuous
 62
     7
370
    15
100
AcDbCircle
 10
-3.8971081167
 20
-7.2909764729
 30
0.0
 40
6.153094326971418
100
AcDbArc
 50
71.8212063694
 51
76.4088768522
  0
ARC
  5
3C7
330
1F
100
AcDbEntity
  8
0
  6
Continuous
 62
     7
370
    15
100
AcDbCircle
 10
-5.2362559769
 20
-4.2972842236
 30
0.0
 40
4.534791946596753
100
AcDbArc
 50
51.7392247868
 51
58.9654123748
  0
ARC
  5
3C8
330
1F
100
AcDbEntity
  8
0
  6
Continuous
 62
     7
370
    15
100
AcDbCircle
 10
-7.2909764729
 20
3.8971081167
 30
0.0
 40
6.153094326968132
100
AcDbArc
 50
305.0603542124
 51
315.5526311728
  0
ARC
  5
3C9
330
1F
100
AcDbEntity
  8
0
  6
Continuous
 62
     7
370
    15
100
AcDbCircle
 10
-3.8971081167
 20
-7.2909764729
 30
0.0
 40
6.153094326967811
100
AcDbArc
 50
78.1973688272
 51
88.6896457876
  0
ARC
  5
3CA
330
1F
100
AcDbEntity
  8
0
  6
Continuous
 62
     7
370
    15
100
AcDbCircle
 10
-6.7412309245
 20
0.6639532941
 30
0.0
 40
4.534791946596816
100
AcDbArc
 50
334.7845876252
 51
342.0107752132
  0
ARC
  5
3CB
330
1F
100
AcDbEntity
  8
0
  6
Continuous
 62
     7
370
    15
100
AcDbCircle
 10
-6.4821692006
 20
-1.9663445296
 30
0.0
 40
4.534791946596099
100
AcDbArc
 50
22.5677677292
 51
27.1483396452
  0
ARC
  5
3CC
330
1F
100
AcDbEntity
  8
0
  6
Continuous
 62
     7
370
    15
100
AcDbCircle
 10
-7.2909764729
 20
3.8971081167
 30
0.0
 40
6.153094326970962
100
AcDbArc
 50
317.3411231478
 51
321.9287936306
  0
ARC
  5
3CD
330
1F
100
AcDbEntity
  8
0
  6
Continuous
 62
     7
370
    15
100
AcDbCircle
 10
-6.390594327
 20
-5.2446252249
 30
0.0
 40
6.153094326969225
100
AcDbArc
 50
49.3212063694
 51
53.9088768522
  0
ARC
  5
3CE
330
1F
100
AcDbEntity
  8
0
  6
Continuous
 62
     7
370
    15
100
AcDbCircle
 10
-6.7412309245
 20
0.6639532941
 30
0.0
 40
4.534791946596813
100
AcDbArc
 50
344.1016603548
 51
348.6822322708
  0
ARC
  5
3CF
330
1F
100
AcDbEntity
  8
0
  6
Continuous
 62
     7
370
    15
100
AcDbCircle
 10
-1.9663445296
 20
6.4821692006
 30
0.0
 40
4.534791946596807
100
AcDbArc
 50
267.2845876252
 51
274.5107752132
  0
ARC
  5
3D0
330
1F
100
AcDbEntity
  8
0
  6
Continuous
 62
     7
370
    15
100
AcDbCircle
 10
-5.9740013496
 20
3.1931702475
 30
0.0
 40
4.534791946596799
100
AcDbArc
 50
344.2392247868
 51
351.4654123748
  0
ARC
  5
3D1
330
1F
100
AcDbEntity
  8
0
  6
Continuous
 62
     7
370
    15
100
AcDbCircle
 10
0.8103225231
 20
8.2273426457
 30
0.0
 40
6.153094326967996
100
AcDbArc
 50
237.5603542124
 51
248.0526311728
  0
ARC
  5
3D2
330
1F
100
AcDbEntity
  8
0
  6
Continuous
 62
     7
370
    15
100
AcDbCircle
 10
-8.2273426457
 20
0.8103225231
 30
0.0
 40
6.15309432696805
100
AcDbArc
 50
10.6973688272
 51
21.1896457876
  0
ARC
  5
3D3
330
1F
100
AcDbEntity
  8
0
  6
Continuous
 62
     7
370
    15
100
AcDbCircle
 10
-3.5489522861
 20
3.5220644047
 30
0.0
 40
0.2500000000000001
100
AcDbArc
 50
41.8387232776
 51
135.21786891
  0
ARC
  5
3D4
330
1F
100
AcDbEntity
  8
0
  6
Continuous
 62
     7
370
    15
100
AcDbCircle
 10
0.0
 20
0.0
 30
0.0
 40
5.249999999999795
100
AcDbArc
 50
135.21786891
 51
146.03213109
  0
ARC
  5
3D5
330
1F
100
AcDbEntity
  8
0
  6
Continuous
 62
     7
370
    15
100
AcDbCircle
 10
-4.1467551691
 20
2.7936394842
 30
0.0
 40
0.2499999999999996
100
AcDbArc
 50
146.03213109
 51
239.4112767224
  0
ARC
  5
3D6
330
1F
100
AcDbEntity
  8
0
  6
Continuous
 62
     7
370
    15
100
AcDbCircle
 10
-1.9663445296
 20
6.4821692006
 30
0.0
 40
4.534791946596946
100
AcDbArc
 50
239.4112767224
 51
264.5382325714
  0
ARC
  5
3D7
330
1F
100
AcDbEntity
  8
0
  6
Continuous
 62
     7
370
    15
100
AcDbCircle
 10
-6.7412309245
 20
0.6639532941
 30
0.0
 40
4.534791946596952
100
AcDbArc
 50
16.7117674286
 51
41.8387232776
  0
ARC
  5
3D8
330
1F
100
AcDbEntity
  8
0
  6
Continuous
 62
     7
370
    15
100
AcDbCircle
 10
-4.2972842236
 20
5.2362559769
 30
0.0
 40
4.534791946595769
100
AcDbArc
 50
299.1016603548
 51
303.6822322708
  0
ARC
  5
3D9
330
1F
100
AcDbEntity
  8
0
  6
Continuous
 62
     7
370
    15
100
AcDbCircle
 10
-5.9740013496
 20
3.1931702475
 30
0.0
 40
4.534791946595698
100
AcDbArc
 50
337.5677677292
 51
342.1483396452
  0
ARC
  5
3DA
330
1F
100
AcDbEntity
  8
0
  6
Continuous
 62
     7
370
    15
100
AcDbCircle
 10
-2.3998273291
 20
7.9111704818
 30
0.0
 40
6.153094326969142
100
AcDbArc
 50
272.3411231478
 51
276.9287936306
  0
ARC
  5
3DB
330
1F
100
AcDbEntity
  8
0
  6
Continuous
 62
     7
370
    15
100
AcDbCircle
 10
-8.2273426457
 20
0.8103225231
 30
0.0
 40
6.153094326969637
100
AcDbArc
 50
4.3212063694
 51
8.9088768522
  0
ARC
  5
3DC
330
1F
100
AcDbEntity
  8
0
  6
Continuous
 62
     7
370
    15
100
AcDbCircle
 10
-4.9076001234
 20
-0.9567972765
 30
0.0
 40
0.2499999999999998
100
AcDbArc
 50
191.03213109
 51
284.4112767224
  0
ARC
  5
3DD
330
1F
100
AcDbEntity
  8
0
  6
Continuous
 62
     7
370
    15
100
AcDbCircle
 10
-5.9740013496
 20
3.1931702475
 30
0.0
 40
4.534791946596891
100
AcDbArc
 50
284.4112767224
 51
309.5382325714
  0
ARC
  5
3DE
330
1F
100
AcDbEntity
  8
0
  6
Continuous
 62
     7
370
    15
100
AcDbCircle
 10
-5.2362559769
 20
-4.2972842236
 30
0.0
 40
4.534791946596966
100
AcDbArc
 50
61.7117674286
 51
86.8387232776
  0
ARC
  5
3DF
330
1F
100
AcDbEntity
  8
0
  6
Continuous
 62
     7
370
    15
100
AcDbCircle
 10
-4.999963852
 20
-0.0190126033
 30
0.0
 40
0.250000000000001
100
AcDbArc
 50
86.8387232776
 51
180.21786891
  0
ARC
  5
3E0
330
1F
100
AcDbEntity
  8
0
  6
Continuous
 62
     7
370
    15
100
AcDbCircle
 10
0.0
 20
0.0
 30
0.0
 40
5.250000000000026
100
AcDbArc
 50
180.21786891
 51
191.03213109
  0
ARC
  5
3E1
330
1F
100
AcDbEntity
  8
0
  6
Continuous
 62
     7
370
    15
100
AcDbCircle
 10
-4.9001817737
 20
0.9940918394
 30
0.0
 40
0.2500000000000007
100
AcDbArc
 50
168.53213109
 51
261.9112767224
  0
ARC
  5
3E2
330
1F
100
AcDbEntity
  8
0
  6
Continuous
 62
     7
370
    15
100
AcDbCircle
 10
-4.2972842236
 20
5.2362559769
 30
0.0
 40
4.53479194659698
100
AcDbArc
 50
261.9112767224
 51
287.0382325714
  0
ARC
  5
3E3
330
1F
100
AcDbEntity
  8
0
  6
Continuous
 62
     7
370
    15
100
AcDbCircle
 10
-6.4821692006
 20
-1.9663445296
 30
0.0
 40
4.53479194659699
100
AcDbArc
 50
39.2117674286
 51
64.3387232776
  0
ARC
  5
3E4
330
1F
100
AcDbEntity
  8
0
  6
Continuous
 62
     7
370
    15
100
AcDbCircle
 10
-4.6266400744
 20
1.8958379735
 30
0.0
 40
0.249999999999998
100
AcDbArc
 50
64.3387232776
 51
157.71786891
  0
ARC
  5
3E5
330
1F
100
AcDbEntity
  8
0
  6
Continuous
 62
     7
370
    15
100
AcDbCircle
 10
0.0
 20
0.0
 30
0.0
 40
5.250000000000102
100
AcDbArc
 50
157.71786891
 51
168.53213109
  0
ARC
  5
3E6
330
1F
100
AcDbEntity
  8
0
  6
Continuous
 62
     7
370
    15
100
AcDbCircle
 10
-4.1678808419
 20
-2.7620226805
 30
0.0
 40
0.2499999999999993
100
AcDbArc
 50
213.53213109
 51
306.9112767224
  0
ARC
  5
3E7
330
1F
100
AcDbEntity
  8
0
  6
Continuous
 62
     7
370
    15
100
AcDbCircle
 10
-6.7412309245
 20
0.6639532941
 30
0.0
 40
4.534791946596989
100
AcDbArc
 50
306.9112767224
 51
332.0382325714
  0
ARC
  5
3E8
330
1F
100
AcDbEntity
  8
0
  6
Continuous
 62
     7
370
    15
100
AcDbCircle
 10
-3.1931702475
 20
-5.9740013496
 30
0.0
 40
4.534791946596906
100
AcDbArc
 50
84.2117674286
 51
109.3387232776
  0
ARC
  5
3E9
330
1F
100
AcDbEntity
  8
0
  6
Continuous
 62
     7
370
    15
100
AcDbCircle
 10
-4.6120884578
 20
-1.9309686836
 30
0.0
 40
0.2500000000000007
100
AcDbArc
 50
109.3387232776
 51
202.71786891
  0
ARC
  5
3EA
330
1F
100
AcDbEntity
  8
0
  6
Continuous
 62
     7
370
    15
100
AcDbCircle
 10
0.0
 20
0.0
 30
0.0
 40
5.250000000000314
100
AcDbArc
 50
202.71786891
 51
213.53213109
  0
ARC
  5
3EB
330
1F
100
AcDbEntity
  8
0
  6
Continuous
 62
     7
370
    15
100
AcDbCircle
 10
-2.7713413458
 20
4.1616904192
 30
0.0
 40
0.2499999999999979
100
AcDbArc
 50
123.6603297584
 51
199.2255939655
  0
ARC
  5
3EC
330
1F
100
AcDbEntity
  8
0
  6
Continuous
 62
     7
370
    15
100
AcDbCircle
 10
0.6639532941
 20
6.7412309245
 30
0.0
 40
4.53479194659697
100
AcDbArc
 50
215.9434665668
 51
242.0382325714
  0
ARC
  5
3ED
330
1F
100
AcDbEntity
  8
0
  6
Continuous
 62
     7
370
    15
100
AcDbCircle
 10
-5.9740013496
 20
3.1931702475
 30
0.0
 40
4.534791946596926
100
AcDbArc
 50
354.2117674286
 51
19.3387232776
  0
ARC
  5
3EE
330
1F
100
AcDbEntity
  8
0
  6
Continuous
 62
     7
370
    15
100
AcDbCircle
 10
-1.9309686836
 20
4.6120884578
 30
0.0
 40
0.2500000000000007
100
AcDbArc
 50
19.3387232776
 51
112.71786891
  0
ARC
  5
3EF
330
1F
100
AcDbEntity
  8
0
  6
Continuous
 62
     7
370
    15
100
AcDbCircle
 10
0.0
 20
0.0
 30
0.0
 40
5.250000000000205
100
AcDbArc
 50
112.71786891
 51
123.6603297584
  0
ARC
  5
3F0
330
1F
100
AcDbEntity
  8
0
  6
Continuous
 62
     7
370
    15
100
AcDbCircle
 10
-5.2446252249
 20
6.390594327
 30
0.0
 40
6.153094326970235
100
AcDbArc
 50
294.8411231478
 51
299.4287936306
  0
ARC
  5
3F1
330
1F
100
AcDbEntity
  8
0
  6
Continuous
 62
     7
370
    15
100
AcDbCircle
 10
-7.9111704818
 20
-2.3998273291
 30
0.0
 40
6.153094326970876
100
AcDbArc
 50
26.8212063694
 51
31.4088768522
  0
ARC
  5
3F2
330
1F
100
AcDbEntity
  8
0
  6
Continuous
 62
     7
370
    15
100
AcDbCircle
 10
-5.9740013496
 20
3.1931702475
 30
0.0
 40
4.534791946596314
100
AcDbArc
 50
321.6016603548
 51
326.1822322708
  0
ARC
  5
3F3
330
1F
100
AcDbEntity
  8
0
  6
Continuous
 62
     7
370
    15
100
AcDbCircle
 10
-6.7412309245
 20
0.6639532941
 30
0.0
 40
4.534791946594999
100
AcDbArc
 50
0.0677677292
 51
4.6483396452
  0
ARC
  5
3F4
330
1F
100
AcDbEntity
  8
0
  6
Continuous
 62
     7
370
    15
100
AcDbCircle
 10
-7.9111704818
 20
-2.3998273291
 30
0.0
 40
6.153094326967842
100
AcDbArc
 50
12.929183402
 51
20.820816598
  0
ARC
  5
3F5
330
1F
100
AcDbEntity
  8
0
  6
Continuous
 62
     7
370
    15
100
AcDbCircle
 10
-6.390594327
 20
-5.2446252249
 30
0.0
 40
6.153094326967821
100
AcDbArc
 50
35.429183402
 51
43.320816598
  0
ARC
  5
3F6
330
1F
100
AcDbEntity
  8
0
  6
Continuous
 62
     7
370
    15
100
AcDbCircle
 10
-3.8971081167
 20
-7.2909764729
 30
0.0
 40
6.153094326967576
100
AcDbArc
 50
57.929183402
 51
65.820816598
  0
ARC
  5
3F7
330
1F
100
AcDbEntity
  8
0
  6
Continuous
 62
     7
370
    15
100
AcDbCircle
 10
-0.8103225231
 20
-8.2273426457
 30
0.0
 40
6.153094326967572
100
AcDbArc
 50
80.429183402
 51
88.320816598
  0
ARC
  5
3F8
330
1F
100
AcDbEntity
  8
0
  6
Continuous
 62
     7
370
    15
100
AcDbCircle
 10
2.3998273291
 20
-7.9111704818
 30
0.0
 40
6.153094326967472
100
AcDbArc
 50
102.929183402
 51
110.820816598
  0
ARC
  5
3F9
330
1F
100
AcDbEntity
  8
0
  6
Continuous
 62
     7
370
    15
100
AcDbCircle
 10
5.2446252249
 20
-6.390594327
 30
0.0
 40
6.153094326967577
100
AcDbArc
 50
125.429183402
 51
133.320816598
  0
ARC
  5
3FA
330
1F
100
AcDbEntity
  8
0
  6
Continuous
 62
     7
370
    15
100
AcDbCircle
 10
7.2909764729
 20
-3.8971081167
 30
0.0
 40
6.153094326967899
100
AcDbArc
 50
147.929183402
 51
155.820816598
  0
ARC
  5
3FB
330
1F
100
AcDbEntity
  8
0
  6
Continuous
 62
     7
370
    15
100
AcDbCircle
 10
8.2273426457
 20
-0.8103225231
 30
0.0
 40
6.153094326967717
100
AcDbArc
 50
170.429183402
 51
178.320816598
  0
ARC
  5
3FC
330
1F
100
AcDbEntity
  8
0
  6
Continuous
 62
     7
370
    15
100
AcDbCircle
 10
7.9111704818
 20
2.3998273291
 30
0.0
 40
6.153094326967773
100
AcDbArc
 50
192.929183402
 51
200.820816598
  0
ARC
  5
3FD
330
1F
100
AcDbEntity
  8
0
  6
Continuous
 62
     7
370
    15
100
AcDbCircle
 10
6.390594327
 20
5.2446252249
 30
0.0
 40
6.153094326967337
100
AcDbArc
 50
215.429183402
 51
223.320816598
  0
ARC
  5
3FE
330
1F
100
AcDbEntity
  8
0
  6
Continuous
 62
     7
370
    15
100
AcDbCircle
 10
3.8971081167
 20
7.2909764729
 30
0.0
 40
6.153094326967619
100
AcDbArc
 50
237.929183402
 51
245.820816598
  0
ARC
  5
3FF
330
1F
100
AcDbEntity
  8
0
  6
Continuous
 62
     7
370
    15
100
AcDbCircle
 10
0.8103225231
 20
8.2273426457
 30
0.0
 40
6.153094326967761
100
AcDbArc
 50
260.429183402
 51
268.320816598
  0
ARC
  5
400
330
1F
100
AcDbEntity
  8
0
  6
Continuous
 62
     7
370
    15
100
AcDbCircle
 10
-2.3998273291
 20
7.9111704818
 30
0.0
 40
6.153094326967754
100
AcDbArc
 50
282.929183402
 51
290.820816598
  0
ARC
  5
401
330
1F
100
AcDbEntity
  8
0
  6
Continuous
 62
     7
370
    15
100
AcDbCircle
 10
-5.2446252249
 20
6.390594327
 30
0.0
 40
6.153094326967696
100
AcDbArc
 50
305.429183402
 51
313.320816598
  0
ARC
  5
402
330
1F
100
AcDbEntity
  8
0
  6
Continuous
 62
     7
370
    15
100
AcDbCircle
 10
-7.2909764729
 20
3.8971081167
 30
0.0
 40
6.153094326967876
100
AcDbArc
 50
327.929183402
 51
335.820816598
  0
ARC
  5
403
330
1F
100
AcDbEntity
  8
0
  6
Continuous
 62
     7
370
    15
100
AcDbCircle
 10
-8.2273426457
 20
0.8103225231
 30
0.0
 40
6.153094326967947
100
AcDbArc
 50
350.429183402
 51
358.320816598
  0
ENDSEC
  0
SECTION
  2
OBJECTS
  0
DICTIONARY
  5
C
330
0
100
AcDbDictionary
281
     1
  3
ACAD_GROUP
350
D
  3
ACAD_LAYOUT
350
1A
  3
ACAD_MLINESTYLE
350
17
  3
ACAD_PLOTSETTINGS
350
19
  3
ACAD_PLOTSTYLENAME
350
E
  0
DICTIONARY
  5
D
102
{ACAD_REACTORS
330
C
102
}
330
C
100
AcDbDictionary
281
     1
  0
DICTIONARY
  5
1A
102
{ACAD_REACTORS
330
C
102
}
330
C
100
AcDbDictionary
281
     1
  3
Layout1
350
1E
  3
Layout2
350
26
  3
Model
350
22
  0
DICTIONARY
  5
17
102
{ACAD_REACTORS
330
C
102
}
330
C
100
AcDbDictionary
281
     1
  3
Standard
350
18
  0
DICTIONARY
  5
19
102
{ACAD_REACTORS
330
C
102
}
330
C
100
AcDbDictionary
281
     1
  0
ACDBDICTIONARYWDFLT
  5
E
102
{ACAD_REACTORS
330
C
102
}
330
C
100
AcDbDictionary
281
     1
  3
Normal
350
F
100
AcDbDictionaryWithDefault
340
F
  0
LAYOUT
  5
1E
102
{ACAD_REACTORS
330
1A
102
}
330
1A
100
AcDbPlotSettings
  1

  2
none_device
  4

  6

 40
0.0
 41
0.0
 42
0.0
 43
0.0
 44
0.0
 45
0.0
 46
0.0
 47
0.0
 48
0.0
 49
0.0
140
0.0
141
0.0
142
1.0
143
1.0
 70
   688
 72
     0
 73
     0
 74
     5
  7

 75
    16
147
1.0
148
0.0
149
0.0
100
AcDbLayout
  1
Layout1
 70
     1
 71
     1
 10
0.0
 20
0.0
 11
12.0
 21
9.0
 12
0.0
 22
0.0
 32
0.0
 14
1.0000000000E+20
 24
1.0000000000E+20
 34
1.0000000000E+20
 15
-1.0000000000E+20
 25
-1.0000000000E+20
 35
-1.0000000000E+20
146
0.0
 13
0.0
 23
0.0
 33
0.0
 16
1.0
 26
0.0
 36
0.0
 17
0.0
 27
1.0
 37
0.0
 76
     0
330
1B
  0
LAYOUT
  5
26
102
{ACAD_REACTORS
330
1A
102
}
330
1A
100
AcDbPlotSettings
  1

  2
none_device
  4

  6

 40
0.0
 41
0.0
 42
0.0
 43
0.0
 44
0.0
 45
0.0
 46
0.0
 47
0.0
 48
0.0
 49
0.0
140
0.0
141
0.0
142
1.0
143
1.0
 70
   688
 72
     0
 73
     0
 74
     5
  7

 75
    16
147
1.0
148
0.0
149
0.0
100
AcDbLayout
  1
Layout2
 70
     1
 71
     2
 10
0.0
 20
0.0
 11
0.0
 21
0.0
 12
0.0
 22
0.0
 32
0.0
 14
0.0
 24
0.0
 34
0.0
 15
0.0
 25
0.0
 35
0.0
146
0.0
 13
0.0
 23
0.0
 33
0.0
 16
1.0
 26
0.0
 36
0.0
 17
0.0
 27
1.0
 37
0.0
 76
     0
330
23
  0
LAYOUT
  5
22
102
{ACAD_REACTORS
330
1A
102
}
330
1A
100
AcDbPlotSettings
  1

  2
none_device
  4
ANSI_A_(11.00_x_8.50_Inches)
  6

 40
6.35
 41
19.05
 42
6.35000508
 43
19.05000254
 44
279.4
 45
215.9
 46
133.34999746
 47
88.89999873
 48
0.0
 49
0.0
140
0.0
141
0.0
142
0.7034283739
143
1.0
 70
  1696
 72
     0
 73
     0
 74
     0
  7

 75
     0
147
0.5913241897
148
0.0
149
0.0
100
AcDbLayout
  1
Model
 70
     1
 71
     0
 10
0.0
 20
0.0
 11
12.0
 21
9.0
 12
0.0
 22
0.0
 32
0.0
 14
-5.9814192262
 24
-5.9814192262
 34
0.0
 15
5.9814192262
 25
5.9814192262
 35
0.0
146
0.0
 13
0.0
 23
0.0
 33
0.0
 16
1.0
 26
0.0
 36
0.0
 17
0.0
 27
1.0
 37
0.0
 76
     0
330
1F
331
29
  0
MLINESTYLE
  5
18
102
{ACAD_REACTORS
330
17
102
}
330
17
100
AcDbMlineStyle
  2
Standard
 70
     0
  3

 62
   256
 51
90.0
 52
90.0
 71
     2
 49
0.5
 62
   256
  6
BYLAYER
 49
-0.5
 62
   256
  6
BYLAYER
  0
ACDBPLACEHOLDER
  5
F
102
{ACAD_REACTORS
330
E
102
}
330
E
  0
ENDSEC
  0
EOF
